<svg width="400" height="244" viewBox="0 0 400 244" fill="none" xmlns="http://www.w3.org/2000/svg">
<rect x="0.5" y="0.5" width="399" height="243" rx="23.5" fill="white"/>
<rect x="0.5" y="0.5" width="399" height="243" rx="23.5" stroke="#F1F1F1"/>
<path d="M32.024 20.624L29.684 29H27.704L26.132 23.036L24.488 29L22.52 29.012L20.264 20.624H22.064L23.54 27.128L25.244 20.624H27.116L28.724 27.092L30.212 20.624H32.024ZM39.301 25.532C39.301 25.772 39.285 25.988 39.253 26.18H34.393C34.433 26.66 34.601 27.036 34.897 27.308C35.193 27.58 35.557 27.716 35.989 27.716C36.613 27.716 37.057 27.448 37.321 26.912H39.133C38.941 27.552 38.573 28.08 38.029 28.496C37.485 28.904 36.817 29.108 36.025 29.108C35.385 29.108 34.809 28.968 34.297 28.688C33.793 28.4 33.397 27.996 33.109 27.476C32.829 26.956 32.689 26.356 32.689 25.676C32.689 24.988 32.829 24.384 33.109 23.864C33.389 23.344 33.781 22.944 34.285 22.664C34.789 22.384 35.369 22.244 36.025 22.244C36.657 22.244 37.221 22.38 37.717 22.652C38.221 22.924 38.609 23.312 38.881 23.816C39.161 24.312 39.301 24.884 39.301 25.532ZM37.561 25.052C37.553 24.62 37.397 24.276 37.093 24.02C36.789 23.756 36.417 23.624 35.977 23.624C35.561 23.624 35.209 23.752 34.921 24.008C34.641 24.256 34.469 24.604 34.405 25.052H37.561ZM41.3792 21.56C41.0832 21.56 40.8352 21.468 40.6352 21.284C40.4432 21.092 40.3472 20.856 40.3472 20.576C40.3472 20.296 40.4432 20.064 40.6352 19.88C40.8352 19.688 41.0832 19.592 41.3792 19.592C41.6752 19.592 41.9192 19.688 42.1112 19.88C42.3112 20.064 42.4112 20.296 42.4112 20.576C42.4112 20.856 42.3112 21.092 42.1112 21.284C41.9192 21.468 41.6752 21.56 41.3792 21.56ZM42.2072 22.352V29H40.5272V22.352H42.2072ZM46.4711 22.244C46.9671 22.244 47.4031 22.344 47.7791 22.544C48.1551 22.736 48.4511 22.988 48.6671 23.3V22.352H50.3591V29.048C50.3591 29.664 50.2351 30.212 49.9871 30.692C49.7391 31.18 49.3671 31.564 48.8711 31.844C48.3751 32.132 47.7751 32.276 47.0711 32.276C46.1271 32.276 45.3511 32.056 44.7431 31.616C44.1431 31.176 43.8031 30.576 43.7231 29.816H45.3911C45.4791 30.12 45.6671 30.36 45.9551 30.536C46.2511 30.72 46.6071 30.812 47.0231 30.812C47.5111 30.812 47.9071 30.664 48.2111 30.368C48.5151 30.08 48.6671 29.64 48.6671 29.048V28.016C48.4511 28.328 48.1511 28.588 47.7671 28.796C47.3911 29.004 46.9591 29.108 46.4711 29.108C45.9111 29.108 45.3991 28.964 44.9351 28.676C44.4711 28.388 44.1031 27.984 43.8311 27.464C43.5671 26.936 43.4351 26.332 43.4351 25.652C43.4351 24.98 43.5671 24.384 43.8311 23.864C44.1031 23.344 44.4671 22.944 44.9231 22.664C45.3871 22.384 45.9031 22.244 46.4711 22.244ZM48.6671 25.676C48.6671 25.268 48.5871 24.92 48.4271 24.632C48.2671 24.336 48.0511 24.112 47.7791 23.96C47.5071 23.8 47.2151 23.72 46.9031 23.72C46.5911 23.72 46.3031 23.796 46.0391 23.948C45.7751 24.1 45.5591 24.324 45.3911 24.62C45.2311 24.908 45.1511 25.252 45.1511 25.652C45.1511 26.052 45.2311 26.404 45.3911 26.708C45.5591 27.004 45.7751 27.232 46.0391 27.392C46.3111 27.552 46.5991 27.632 46.9031 27.632C47.2151 27.632 47.5071 27.556 47.7791 27.404C48.0511 27.244 48.2671 27.02 48.4271 26.732C48.5871 26.436 48.6671 26.084 48.6671 25.676ZM55.7439 22.256C56.2479 22.256 56.6959 22.368 57.0879 22.592C57.4799 22.808 57.7839 23.132 57.9999 23.564C58.2239 23.988 58.3359 24.5 58.3359 25.1V29H56.6559V25.328C56.6559 24.8 56.5239 24.396 56.2599 24.116C55.9959 23.828 55.6359 23.684 55.1799 23.684C54.7159 23.684 54.3479 23.828 54.0759 24.116C53.8119 24.396 53.6799 24.8 53.6799 25.328V29H51.9999V20.12H53.6799V23.18C53.8959 22.892 54.1839 22.668 54.5439 22.508C54.9039 22.34 55.3039 22.256 55.7439 22.256ZM61.8895 23.732V26.948C61.8895 27.172 61.9415 27.336 62.0455 27.44C62.1575 27.536 62.3415 27.584 62.5975 27.584H63.3775V29H62.3215C60.9055 29 60.1975 28.312 60.1975 26.936V23.732H59.4055V22.352H60.1975V20.708H61.8895V22.352H63.3775V23.732H61.8895Z" fill="#7A7D84"/>
<g clip-path="url(#clip0_11588_30311)">
<rect width="356" height="132" transform="translate(20 46)" fill="white"/>
<path d="M23.8043 58.1193C23.2191 58.1193 22.7021 58.0156 22.2532 57.8082C21.8072 57.598 21.4592 57.3097 21.2092 56.9432C20.9592 56.5739 20.8356 56.1534 20.8384 55.6818C20.8356 55.3125 20.908 54.9716 21.0558 54.6591C21.2035 54.3437 21.4052 54.081 21.6609 53.8707C21.9194 53.6577 22.2077 53.5227 22.5259 53.4659V53.4148C22.1083 53.3068 21.7759 53.0724 21.5288 52.7116C21.2816 52.348 21.1594 51.9347 21.1623 51.4716C21.1594 51.0284 21.2717 50.6321 21.4989 50.2827C21.7262 49.9332 22.0387 49.6577 22.4364 49.456C22.837 49.2543 23.293 49.1534 23.8043 49.1534C24.31 49.1534 24.7617 49.2543 25.1594 49.456C25.5572 49.6577 25.8697 49.9332 26.0969 50.2827C26.3271 50.6321 26.4435 51.0284 26.4464 51.4716C26.4435 51.9347 26.3171 52.348 26.0671 52.7116C25.82 53.0724 25.4918 53.3068 25.0827 53.4148V53.4659C25.3981 53.5227 25.6822 53.6577 25.935 53.8707C26.1879 54.081 26.3896 54.3437 26.5401 54.6591C26.6907 54.9716 26.7674 55.3125 26.7702 55.6818C26.7674 56.1534 26.6396 56.5739 26.3867 56.9432C26.1367 57.3097 25.7887 57.598 25.3427 57.8082C24.8995 58.0156 24.3867 58.1193 23.8043 58.1193ZM23.8043 57.1818C24.1992 57.1818 24.5401 57.1179 24.8271 56.9901C25.114 56.8622 25.3356 56.6818 25.4918 56.4489C25.6481 56.2159 25.7276 55.9432 25.7305 55.6307C25.7276 55.3011 25.6424 55.0099 25.4748 54.7571C25.3072 54.5043 25.0785 54.3054 24.7887 54.1605C24.5018 54.0156 24.1737 53.9432 23.8043 53.9432C23.4322 53.9432 23.0998 54.0156 22.8072 54.1605C22.5174 54.3054 22.2887 54.5043 22.1211 54.7571C21.9563 55.0099 21.8754 55.3011 21.8782 55.6307C21.8754 55.9432 21.9506 56.2159 22.104 56.4489C22.2603 56.6818 22.4833 56.8622 22.7731 56.9901C23.0629 57.1179 23.4066 57.1818 23.8043 57.1818ZM23.8043 53.0398C24.1168 53.0398 24.3938 52.9773 24.6353 52.8523C24.8796 52.7273 25.0714 52.5526 25.2106 52.3281C25.3498 52.1037 25.4208 51.8409 25.4237 51.5398C25.4208 51.2443 25.3512 50.9872 25.2148 50.7685C25.0785 50.5469 24.8896 50.3764 24.6481 50.2571C24.4066 50.1349 24.1254 50.0739 23.8043 50.0739C23.4776 50.0739 23.1921 50.1349 22.9478 50.2571C22.7035 50.3764 22.5146 50.5469 22.381 50.7685C22.2475 50.9872 22.1822 51.2443 22.185 51.5398C22.1822 51.8409 22.2489 52.1037 22.3853 52.3281C22.5245 52.5526 22.7163 52.7273 22.9606 52.8523C23.2049 52.9773 23.4862 53.0398 23.8043 53.0398ZM31.25 58.1193C30.608 58.1193 30.0611 57.9446 29.6094 57.5952C29.1577 57.2429 28.8125 56.733 28.5739 56.0653C28.3352 55.3949 28.2159 54.5852 28.2159 53.6364C28.2159 52.6932 28.3352 51.8878 28.5739 51.2202C28.8153 50.5497 29.1619 50.0384 29.6136 49.6861C30.0682 49.331 30.6136 49.1534 31.25 49.1534C31.8864 49.1534 32.4304 49.331 32.8821 49.6861C33.3366 50.0384 33.6832 50.5497 33.9219 51.2202C34.1634 51.8878 34.2841 52.6932 34.2841 53.6364C34.2841 54.5852 34.1648 55.3949 33.9261 56.0653C33.6875 56.733 33.3423 57.2429 32.8906 57.5952C32.4389 57.9446 31.892 58.1193 31.25 58.1193ZM31.25 57.1818C31.8864 57.1818 32.3807 56.875 32.733 56.2614C33.0852 55.6477 33.2614 54.7727 33.2614 53.6364C33.2614 52.8807 33.1804 52.2372 33.0185 51.706C32.8594 51.1747 32.6293 50.7699 32.3281 50.4915C32.0298 50.2131 31.6705 50.0739 31.25 50.0739C30.6193 50.0739 30.1264 50.3849 29.7713 51.0071C29.4162 51.6264 29.2386 52.5028 29.2386 53.6364C29.2386 54.392 29.3182 55.0341 29.4773 55.5625C29.6364 56.0909 29.8651 56.4929 30.1634 56.7685C30.4645 57.044 30.8267 57.1818 31.25 57.1818Z" fill="#4C6572"/>
<path d="M22.0082 96.9424L25.9116 89.2208V89.1526H21.4116V88.2151H27.0025V89.2037L23.1161 96.9424H22.0082ZM31.25 97.0617C30.608 97.0617 30.0611 96.887 29.6094 96.5376C29.1577 96.1853 28.8125 95.6753 28.5739 95.0077C28.3352 94.3373 28.2159 93.5276 28.2159 92.5787C28.2159 91.6356 28.3352 90.8302 28.5739 90.1626C28.8153 89.4921 29.1619 88.9807 29.6136 88.6285C30.0682 88.2733 30.6136 88.0958 31.25 88.0958C31.8864 88.0958 32.4304 88.2733 32.8821 88.6285C33.3366 88.9807 33.6832 89.4921 33.9219 90.1626C34.1634 90.8302 34.2841 91.6356 34.2841 92.5787C34.2841 93.5276 34.1648 94.3373 33.9261 95.0077C33.6875 95.6753 33.3423 96.1853 32.8906 96.5376C32.4389 96.887 31.892 97.0617 31.25 97.0617ZM31.25 96.1242C31.8864 96.1242 32.3807 95.8174 32.733 95.2037C33.0852 94.5901 33.2614 93.7151 33.2614 92.5787C33.2614 91.8231 33.1804 91.1796 33.0185 90.6483C32.8594 90.1171 32.6293 89.7123 32.3281 89.4339C32.0298 89.1555 31.6705 89.0162 31.25 89.0162C30.6193 89.0162 30.1264 89.3273 29.7713 89.9495C29.4162 90.5688 29.2386 91.4452 29.2386 92.5787C29.2386 93.3344 29.3182 93.9765 29.4773 94.5049C29.6364 95.0333 29.8651 95.4353 30.1634 95.7108C30.4645 95.9864 30.8267 96.1242 31.25 96.1242Z" fill="#4C6572"/>
<path d="M23.8129 136.004C23.4549 135.998 23.0969 135.93 22.739 135.8C22.381 135.669 22.0543 135.449 21.7589 135.139C21.4634 134.827 21.2262 134.405 21.0472 133.873C20.8683 133.339 20.7788 132.669 20.7788 131.862C20.7788 131.089 20.8512 130.405 20.9961 129.808C21.141 129.209 21.3512 128.704 21.6268 128.295C21.9023 127.883 22.2347 127.571 22.6239 127.358C23.016 127.145 23.4577 127.038 23.9492 127.038C24.4379 127.038 24.8725 127.136 25.2532 127.332C25.6367 127.525 25.9492 127.795 26.1907 128.142C26.4322 128.488 26.5884 128.888 26.6594 129.339H25.6197C25.5231 128.947 25.3356 128.622 25.0572 128.363C24.7788 128.105 24.4094 127.976 23.9492 127.976C23.2731 127.976 22.7404 128.27 22.3512 128.858C21.9648 129.446 21.7702 130.271 21.7674 131.334H21.8356C21.9947 131.092 22.1836 130.886 22.4023 130.716C22.6239 130.542 22.8683 130.409 23.1353 130.315C23.4023 130.221 23.685 130.175 23.9833 130.175C24.4833 130.175 24.9407 130.3 25.3555 130.55C25.7702 130.797 26.1026 131.139 26.3526 131.577C26.6026 132.011 26.7276 132.51 26.7276 133.072C26.7276 133.612 26.6069 134.106 26.3654 134.555C26.1239 135.001 25.7844 135.356 25.3469 135.621C24.9123 135.882 24.4009 136.01 23.8129 136.004ZM23.8129 135.067C24.1708 135.067 24.4918 134.977 24.7759 134.798C25.0629 134.619 25.2887 134.379 25.4535 134.078C25.6211 133.777 25.7049 133.442 25.7049 133.072C25.7049 132.711 25.6239 132.383 25.462 132.088C25.3029 131.79 25.0827 131.552 24.8015 131.376C24.5231 131.2 24.2049 131.112 23.8469 131.112C23.5771 131.112 23.3256 131.166 23.0927 131.274C22.8597 131.379 22.6552 131.524 22.479 131.709C22.3058 131.893 22.1694 132.105 22.07 132.344C21.9705 132.579 21.9208 132.828 21.9208 133.089C21.9208 133.436 22.0018 133.76 22.1637 134.061C22.3285 134.362 22.5529 134.605 22.837 134.79C23.1239 134.974 23.4492 135.067 23.8129 135.067ZM31.25 136.004C30.608 136.004 30.0611 135.829 29.6094 135.48C29.1577 135.128 28.8125 134.618 28.5739 133.95C28.3352 133.28 28.2159 132.47 28.2159 131.521C28.2159 130.578 28.3352 129.773 28.5739 129.105C28.8153 128.434 29.1619 127.923 29.6136 127.571C30.0682 127.216 30.6136 127.038 31.25 127.038C31.8864 127.038 32.4304 127.216 32.8821 127.571C33.3366 127.923 33.6832 128.434 33.9219 129.105C34.1634 129.773 34.2841 130.578 34.2841 131.521C34.2841 132.47 34.1648 133.28 33.9261 133.95C33.6875 134.618 33.3423 135.128 32.8906 135.48C32.4389 135.829 31.892 136.004 31.25 136.004ZM31.25 135.067C31.8864 135.067 32.3807 134.76 32.733 134.146C33.0852 133.532 33.2614 132.657 33.2614 131.521C33.2614 130.765 33.1804 130.122 33.0185 129.591C32.8594 129.059 32.6293 128.655 32.3281 128.376C32.0298 128.098 31.6705 127.959 31.25 127.959C30.6193 127.959 30.1264 128.27 29.7713 128.892C29.4162 129.511 29.2386 130.388 29.2386 131.521C29.2386 132.277 29.3182 132.919 29.4773 133.447C29.6364 133.976 29.8651 134.378 30.1634 134.653C30.4645 134.929 30.8267 135.067 31.25 135.067Z" fill="#4C6572"/>
<path d="M23.8299 174.945C23.3299 174.945 22.8796 174.846 22.479 174.647C22.0785 174.448 21.7575 174.176 21.516 173.829C21.2745 173.482 21.1424 173.088 21.1197 172.644H22.1424C22.1822 173.039 22.3612 173.366 22.6793 173.624C23.0004 173.88 23.3839 174.008 23.8299 174.008C24.1879 174.008 24.506 173.924 24.7844 173.757C25.0657 173.589 25.2859 173.359 25.445 173.066C25.6069 172.771 25.6879 172.437 25.6879 172.065C25.6879 171.684 25.604 171.345 25.4364 171.046C25.2717 170.745 25.0444 170.508 24.7546 170.335C24.4648 170.161 24.1339 170.073 23.7617 170.07C23.4947 170.068 23.2205 170.109 22.9393 170.194C22.658 170.276 22.4265 170.383 22.2447 170.514L21.256 170.394L21.7844 166.099H26.3185V167.036H22.6708L22.364 169.61H22.4151C22.5941 169.468 22.8185 169.35 23.0884 169.257C23.3583 169.163 23.6396 169.116 23.9322 169.116C24.4663 169.116 24.9421 169.244 25.3597 169.499C25.7802 169.752 26.1097 170.099 26.3484 170.539C26.5898 170.98 26.7106 171.482 26.7106 172.048C26.7106 172.605 26.5856 173.102 26.3356 173.539C26.0884 173.974 25.7475 174.318 25.3129 174.57C24.8782 174.82 24.3839 174.945 23.8299 174.945ZM31.25 174.945C30.608 174.945 30.0611 174.771 29.6094 174.421C29.1577 174.069 28.8125 173.559 28.5739 172.892C28.3352 172.221 28.2159 171.411 28.2159 170.463C28.2159 169.519 28.3352 168.714 28.5739 168.046C28.8153 167.376 29.1619 166.865 29.6136 166.512C30.0682 166.157 30.6136 165.98 31.25 165.98C31.8864 165.98 32.4304 166.157 32.8821 166.512C33.3366 166.865 33.6832 167.376 33.9219 168.046C34.1634 168.714 34.2841 169.519 34.2841 170.463C34.2841 171.411 34.1648 172.221 33.9261 172.892C33.6875 173.559 33.3423 174.069 32.8906 174.421C32.4389 174.771 31.892 174.945 31.25 174.945ZM31.25 174.008C31.8864 174.008 32.3807 173.701 32.733 173.088C33.0852 172.474 33.2614 171.599 33.2614 170.463C33.2614 169.707 33.1804 169.063 33.0185 168.532C32.8594 168.001 32.6293 167.596 32.3281 167.318C32.0298 167.039 31.6705 166.9 31.25 166.9C30.6193 166.9 30.1264 167.211 29.7713 167.833C29.4162 168.453 29.2386 169.329 29.2386 170.463C29.2386 171.218 29.3182 171.86 29.4773 172.389C29.6364 172.917 29.8651 173.319 30.1634 173.595C30.4645 173.87 30.8267 174.008 31.25 174.008Z" fill="#4C6572"/>
<g clip-path="url(#clip1_11588_30311)">
<rect width="333" height="132" transform="translate(43 46)" fill="white"/>
<rect x="43.5" y="46.5" width="332" height="119" stroke="#F1F1F1"/>
<path d="M43 85.9951H376" stroke="#F1F1F1"/>
<path d="M43 126.005H376" stroke="#F1F1F1"/>
<path d="M98.5005 46L98.5005 164.75" stroke="#F1F1F1"/>
<path d="M153.997 46L153.997 164.75" stroke="#F1F1F1"/>
<path d="M209.501 46L209.501 164.75" stroke="#F1F1F1"/>
<path d="M265.004 46L265.004 164.75" stroke="#F1F1F1"/>
<path d="M320.5 46L320.5 164.75" stroke="#F1F1F1"/>
<ellipse cx="182.027" cy="87.5036" rx="2.31208" ry="2.50359" fill="#E697FF"/>
<path d="M45.2051 54.0781C64.9626 70.232 128.166 125.617 155.847 125.617C239.958 125.617 347.213 125.617 370.922 125.617" stroke="#56D9C8" stroke-width="2"/>
<path d="M45.8027 53.9247C78.8785 70.3398 156.411 88.0684 184.072 86.9622C222.458 85.4272 342.697 61.0007 374.309 47.7314" stroke="#E697FF" stroke-width="2"/>
<ellipse cx="154" cy="125.611" rx="2.31208" ry="2.50359" fill="#56D9C8"/>
<path d="M57.8194 168.727V176H56.9387V169.651H56.8961L55.1206 170.83V169.935L56.9387 168.727H57.8194ZM63.9735 176L62.3116 170.545H63.1923L64.3713 174.722H64.4281L65.5929 170.545H66.4877L67.6383 174.707H67.6951L68.8741 170.545H69.7548L68.0929 176H67.269L66.0758 171.81H65.9906L64.7974 176H63.9735ZM72.9641 176.114C72.4386 176.114 71.9852 175.998 71.604 175.766C71.2253 175.531 70.9329 175.205 70.7269 174.786C70.5233 174.364 70.4215 173.874 70.4215 173.315C70.4215 172.757 70.5233 172.264 70.7269 171.838C70.9329 171.41 71.2193 171.076 71.5863 170.837C71.9556 170.595 72.3865 170.474 72.8789 170.474C73.163 170.474 73.4435 170.522 73.7205 170.616C73.9975 170.711 74.2496 170.865 74.4769 171.078C74.7042 171.289 74.8853 171.568 75.0202 171.916C75.1552 172.264 75.2227 172.693 75.2227 173.202V173.557H71.0181V172.832H74.3704C74.3704 172.525 74.3088 172.25 74.1857 172.009C74.065 171.767 73.8922 171.576 73.6673 171.437C73.4447 171.297 73.1819 171.227 72.8789 171.227C72.5451 171.227 72.2563 171.31 72.0124 171.476C71.771 171.639 71.5851 171.852 71.4549 172.115C71.3247 172.378 71.2596 172.66 71.2596 172.96V173.443C71.2596 173.855 71.3306 174.204 71.4727 174.491C71.6171 174.775 71.8171 174.991 72.0728 175.141C72.3285 175.287 72.6256 175.361 72.9641 175.361C73.1843 175.361 73.3832 175.33 73.5607 175.268C73.7406 175.205 73.8957 175.11 74.0259 174.984C74.1561 174.857 74.2567 174.698 74.3278 174.509L75.1374 174.736C75.0522 175.01 74.909 175.252 74.7077 175.46C74.5065 175.666 74.2579 175.827 73.962 175.943C73.6661 176.057 73.3335 176.114 72.9641 176.114ZM78.7844 176.114C78.2589 176.114 77.8055 175.998 77.4244 175.766C77.0456 175.531 76.7532 175.205 76.5472 174.786C76.3436 174.364 76.2418 173.874 76.2418 173.315C76.2418 172.757 76.3436 172.264 76.5472 171.838C76.7532 171.41 77.0397 171.076 77.4066 170.837C77.7759 170.595 78.2068 170.474 78.6992 170.474C78.9833 170.474 79.2638 170.522 79.5408 170.616C79.8178 170.711 80.07 170.865 80.2972 171.078C80.5245 171.289 80.7056 171.568 80.8406 171.916C80.9755 172.264 81.043 172.693 81.043 173.202V173.557H76.8384V172.832H80.1907C80.1907 172.525 80.1291 172.25 80.006 172.009C79.8853 171.767 79.7125 171.576 79.4876 171.437C79.265 171.297 79.0022 171.227 78.6992 171.227C78.3654 171.227 78.0766 171.31 77.8327 171.476C77.5913 171.639 77.4054 171.852 77.2752 172.115C77.145 172.378 77.0799 172.66 77.0799 172.96V173.443C77.0799 173.855 77.1509 174.204 77.293 174.491C77.4374 174.775 77.6374 174.991 77.8931 175.141C78.1488 175.287 78.4459 175.361 78.7844 175.361C79.0046 175.361 79.2035 175.33 79.381 175.268C79.561 175.205 79.716 175.11 79.8462 174.984C79.9764 174.857 80.0771 174.698 80.1481 174.509L80.9577 174.736C80.8725 175.01 80.7293 175.252 80.5281 175.46C80.3268 175.666 80.0782 175.827 79.7823 175.943C79.4864 176.057 79.1538 176.114 78.7844 176.114ZM83.0991 174.011L83.0849 172.974H83.2553L85.6417 170.545H86.6786L84.136 173.116H84.065L83.0991 174.011ZM82.3178 176V168.727H83.1559V176H82.3178ZM85.7837 176L83.6531 173.301L84.2496 172.719L86.8491 176H85.7837Z" fill="#4C6572"/>
<path d="M112.318 176.099C111.901 176.099 111.526 176.017 111.192 175.851C110.858 175.685 110.591 175.458 110.389 175.169C110.188 174.88 110.078 174.551 110.059 174.182H110.911C110.944 174.511 111.094 174.783 111.359 174.999C111.626 175.212 111.946 175.318 112.318 175.318C112.616 175.318 112.881 175.248 113.113 175.109C113.347 174.969 113.531 174.777 113.663 174.533C113.798 174.287 113.866 174.009 113.866 173.699C113.866 173.382 113.796 173.099 113.656 172.85C113.519 172.599 113.33 172.402 113.088 172.257C112.847 172.113 112.571 172.039 112.261 172.037C112.038 172.035 111.81 172.069 111.575 172.14C111.341 172.209 111.148 172.297 110.997 172.406L110.173 172.307L110.613 168.727H114.391V169.509H111.352L111.096 171.653H111.139C111.288 171.535 111.475 171.437 111.7 171.359C111.925 171.281 112.159 171.241 112.403 171.241C112.848 171.241 113.244 171.348 113.592 171.561C113.943 171.772 114.217 172.061 114.416 172.428C114.618 172.795 114.718 173.214 114.718 173.685C114.718 174.149 114.614 174.563 114.406 174.928C114.2 175.29 113.916 175.576 113.553 175.787C113.191 175.995 112.779 176.099 112.318 176.099ZM120.191 176L118.529 170.545H119.41L120.589 174.722H120.646L121.811 170.545H122.706L123.856 174.707H123.913L125.092 170.545H125.973L124.311 176H123.487L122.294 171.81H122.208L121.015 176H120.191ZM129.182 176.114C128.656 176.114 128.203 175.998 127.822 175.766C127.443 175.531 127.151 175.205 126.945 174.786C126.741 174.364 126.639 173.874 126.639 173.315C126.639 172.757 126.741 172.264 126.945 171.838C127.151 171.41 127.437 171.076 127.804 170.837C128.173 170.595 128.604 170.474 129.097 170.474C129.381 170.474 129.661 170.522 129.938 170.616C130.215 170.711 130.467 170.865 130.695 171.078C130.922 171.289 131.103 171.568 131.238 171.916C131.373 172.264 131.44 172.693 131.44 173.202V173.557H127.236V172.832H130.588C130.588 172.525 130.527 172.25 130.403 172.009C130.283 171.767 130.11 171.576 129.885 171.437C129.662 171.297 129.4 171.227 129.097 171.227C128.763 171.227 128.474 171.31 128.23 171.476C127.989 171.639 127.803 171.852 127.673 172.115C127.542 172.378 127.477 172.66 127.477 172.96V173.443C127.477 173.855 127.548 174.204 127.69 174.491C127.835 174.775 128.035 174.991 128.291 175.141C128.546 175.287 128.843 175.361 129.182 175.361C129.402 175.361 129.601 175.33 129.778 175.268C129.958 175.205 130.113 175.11 130.244 174.984C130.374 174.857 130.475 174.698 130.546 174.509L131.355 174.736C131.27 175.01 131.127 175.252 130.926 175.46C130.724 175.666 130.476 175.827 130.18 175.943C129.884 176.057 129.551 176.114 129.182 176.114ZM135.002 176.114C134.477 176.114 134.023 175.998 133.642 175.766C133.263 175.531 132.971 175.205 132.765 174.786C132.561 174.364 132.46 173.874 132.46 173.315C132.46 172.757 132.561 172.264 132.765 171.838C132.971 171.41 133.257 171.076 133.624 170.837C133.994 170.595 134.425 170.474 134.917 170.474C135.201 170.474 135.482 170.522 135.759 170.616C136.036 170.711 136.288 170.865 136.515 171.078C136.742 171.289 136.923 171.568 137.058 171.916C137.193 172.264 137.261 172.693 137.261 173.202V173.557H133.056V172.832H136.408C136.408 172.525 136.347 172.25 136.224 172.009C136.103 171.767 135.93 171.576 135.705 171.437C135.483 171.297 135.22 171.227 134.917 171.227C134.583 171.227 134.294 171.31 134.051 171.476C133.809 171.639 133.623 171.852 133.493 172.115C133.363 172.378 133.298 172.66 133.298 172.96V173.443C133.298 173.855 133.369 174.204 133.511 174.491C133.655 174.775 133.855 174.991 134.111 175.141C134.367 175.287 134.664 175.361 135.002 175.361C135.222 175.361 135.421 175.33 135.599 175.268C135.779 175.205 135.934 175.11 136.064 174.984C136.194 174.857 136.295 174.698 136.366 174.509L137.176 174.736C137.09 175.01 136.947 175.252 136.746 175.46C136.545 175.666 136.296 175.827 136 175.943C135.704 176.057 135.372 176.114 135.002 176.114ZM139.317 174.011L139.303 172.974H139.473L141.859 170.545H142.896L140.354 173.116H140.283L139.317 174.011ZM138.536 176V168.727H139.374V176H138.536ZM142.002 176L139.871 173.301L140.467 172.719L143.067 176H142.002Z" fill="#4C6572"/>
<path d="M165.694 168.727V176H164.814V169.651H164.771L162.996 170.83V169.935L164.814 168.727H165.694ZM170.158 176.099C169.623 176.099 169.167 175.954 168.791 175.663C168.415 175.369 168.127 174.944 167.928 174.388C167.729 173.829 167.63 173.154 167.63 172.364C167.63 171.578 167.729 170.906 167.928 170.35C168.129 169.791 168.418 169.365 168.795 169.072C169.173 168.776 169.628 168.628 170.158 168.628C170.689 168.628 171.142 168.776 171.518 169.072C171.897 169.365 172.186 169.791 172.385 170.35C172.586 170.906 172.687 171.578 172.687 172.364C172.687 173.154 172.587 173.829 172.388 174.388C172.189 174.944 171.902 175.369 171.525 175.663C171.149 175.954 170.693 176.099 170.158 176.099ZM170.158 175.318C170.689 175.318 171.1 175.062 171.394 174.551C171.688 174.04 171.834 173.311 171.834 172.364C171.834 171.734 171.767 171.198 171.632 170.755C171.499 170.312 171.308 169.975 171.057 169.743C170.808 169.511 170.509 169.395 170.158 169.395C169.633 169.395 169.222 169.654 168.926 170.173C168.63 170.689 168.482 171.419 168.482 172.364C168.482 172.993 168.548 173.528 168.681 173.969C168.814 174.409 169.004 174.744 169.253 174.974C169.504 175.203 169.805 175.318 170.158 175.318ZM178.099 176L176.437 170.545H177.317L178.496 174.722H178.553L179.718 170.545H180.613L181.763 174.707H181.82L182.999 170.545H183.88L182.218 176H181.394L180.201 171.81H180.116L178.922 176H178.099ZM187.089 176.114C186.564 176.114 186.11 175.998 185.729 175.766C185.35 175.531 185.058 175.205 184.852 174.786C184.648 174.364 184.547 173.874 184.547 173.315C184.547 172.757 184.648 172.264 184.852 171.838C185.058 171.41 185.344 171.076 185.711 170.837C186.081 170.595 186.511 170.474 187.004 170.474C187.288 170.474 187.569 170.522 187.846 170.616C188.123 170.711 188.375 170.865 188.602 171.078C188.829 171.289 189.01 171.568 189.145 171.916C189.28 172.264 189.348 172.693 189.348 173.202V173.557H185.143V172.832H188.495C188.495 172.525 188.434 172.25 188.311 172.009C188.19 171.767 188.017 171.576 187.792 171.437C187.57 171.297 187.307 171.227 187.004 171.227C186.67 171.227 186.381 171.31 186.137 171.476C185.896 171.639 185.71 171.852 185.58 172.115C185.45 172.378 185.385 172.66 185.385 172.96V173.443C185.385 173.855 185.456 174.204 185.598 174.491C185.742 174.775 185.942 174.991 186.198 175.141C186.453 175.287 186.751 175.361 187.089 175.361C187.309 175.361 187.508 175.33 187.686 175.268C187.866 175.205 188.021 175.11 188.151 174.984C188.281 174.857 188.382 174.698 188.453 174.509L189.262 174.736C189.177 175.01 189.034 175.252 188.833 175.46C188.632 175.666 188.383 175.827 188.087 175.943C187.791 176.057 187.458 176.114 187.089 176.114ZM192.909 176.114C192.384 176.114 191.931 175.998 191.549 175.766C191.171 175.531 190.878 175.205 190.672 174.786C190.469 174.364 190.367 173.874 190.367 173.315C190.367 172.757 190.469 172.264 190.672 171.838C190.878 171.41 191.165 171.076 191.532 170.837C191.901 170.595 192.332 170.474 192.824 170.474C193.108 170.474 193.389 170.522 193.666 170.616C193.943 170.711 194.195 170.865 194.422 171.078C194.65 171.289 194.831 171.568 194.966 171.916C195.1 172.264 195.168 172.693 195.168 173.202V173.557H190.963V172.832H194.316C194.316 172.525 194.254 172.25 194.131 172.009C194.01 171.767 193.837 171.576 193.613 171.437C193.39 171.297 193.127 171.227 192.824 171.227C192.49 171.227 192.202 171.31 191.958 171.476C191.716 171.639 191.53 171.852 191.4 172.115C191.27 172.378 191.205 172.66 191.205 172.96V173.443C191.205 173.855 191.276 174.204 191.418 174.491C191.562 174.775 191.762 174.991 192.018 175.141C192.274 175.287 192.571 175.361 192.909 175.361C193.13 175.361 193.328 175.33 193.506 175.268C193.686 175.205 193.841 175.11 193.971 174.984C194.101 174.857 194.202 174.698 194.273 174.509L195.083 174.736C194.998 175.01 194.854 175.252 194.653 175.46C194.452 175.666 194.203 175.827 193.907 175.943C193.611 176.057 193.279 176.114 192.909 176.114ZM197.224 174.011L197.21 172.974H197.38L199.767 170.545H200.804L198.261 173.116H198.19L197.224 174.011ZM196.443 176V168.727H197.281V176H196.443ZM199.909 176L197.778 173.301L198.375 172.719L200.974 176H199.909Z" fill="#4C6572"/>
<path d="M221.277 168.727V176H220.397V169.651H220.354L218.579 170.83V169.935L220.397 168.727H221.277ZM225.642 176.099C225.225 176.099 224.85 176.017 224.516 175.851C224.182 175.685 223.915 175.458 223.714 175.169C223.512 174.88 223.402 174.551 223.383 174.182H224.236C224.269 174.511 224.418 174.783 224.683 174.999C224.95 175.212 225.27 175.318 225.642 175.318C225.94 175.318 226.205 175.248 226.437 175.109C226.672 174.969 226.855 174.777 226.988 174.533C227.123 174.287 227.19 174.009 227.19 173.699C227.19 173.382 227.12 173.099 226.981 172.85C226.843 172.599 226.654 172.402 226.412 172.257C226.171 172.113 225.895 172.039 225.585 172.037C225.362 172.035 225.134 172.069 224.9 172.14C224.665 172.209 224.472 172.297 224.321 172.406L223.497 172.307L223.937 168.727H227.716V169.509H224.676L224.42 171.653H224.463C224.612 171.535 224.799 171.437 225.024 171.359C225.249 171.281 225.483 171.241 225.727 171.241C226.172 171.241 226.569 171.348 226.917 171.561C227.267 171.772 227.542 172.061 227.741 172.428C227.942 172.795 228.042 173.214 228.042 173.685C228.042 174.149 227.938 174.563 227.73 174.928C227.524 175.29 227.24 175.576 226.878 175.787C226.515 175.995 226.103 176.099 225.642 176.099ZM233.516 176L231.854 170.545H232.734L233.913 174.722H233.97L235.135 170.545H236.03L237.18 174.707H237.237L238.416 170.545H239.297L237.635 176H236.811L235.618 171.81H235.533L234.339 176H233.516ZM242.506 176.114C241.981 176.114 241.527 175.998 241.146 175.766C240.767 175.531 240.475 175.205 240.269 174.786C240.065 174.364 239.964 173.874 239.964 173.315C239.964 172.757 240.065 172.264 240.269 171.838C240.475 171.41 240.761 171.076 241.128 170.837C241.498 170.595 241.928 170.474 242.421 170.474C242.705 170.474 242.986 170.522 243.263 170.616C243.54 170.711 243.792 170.865 244.019 171.078C244.246 171.289 244.427 171.568 244.562 171.916C244.697 172.264 244.765 172.693 244.765 173.202V173.557H240.56V172.832H243.912C243.912 172.525 243.851 172.25 243.728 172.009C243.607 171.767 243.434 171.576 243.209 171.437C242.987 171.297 242.724 171.227 242.421 171.227C242.087 171.227 241.798 171.31 241.554 171.476C241.313 171.639 241.127 171.852 240.997 172.115C240.867 172.378 240.802 172.66 240.802 172.96V173.443C240.802 173.855 240.873 174.204 241.015 174.491C241.159 174.775 241.359 174.991 241.615 175.141C241.87 175.287 242.168 175.361 242.506 175.361C242.726 175.361 242.925 175.33 243.103 175.268C243.283 175.205 243.438 175.11 243.568 174.984C243.698 174.857 243.799 174.698 243.87 174.509L244.679 174.736C244.594 175.01 244.451 175.252 244.25 175.46C244.049 175.666 243.8 175.827 243.504 175.943C243.208 176.057 242.875 176.114 242.506 176.114ZM248.326 176.114C247.801 176.114 247.348 175.998 246.966 175.766C246.588 175.531 246.295 175.205 246.089 174.786C245.886 174.364 245.784 173.874 245.784 173.315C245.784 172.757 245.886 172.264 246.089 171.838C246.295 171.41 246.582 171.076 246.949 170.837C247.318 170.595 247.749 170.474 248.241 170.474C248.525 170.474 248.806 170.522 249.083 170.616C249.36 170.711 249.612 170.865 249.839 171.078C250.066 171.289 250.248 171.568 250.383 171.916C250.517 172.264 250.585 172.693 250.585 173.202V173.557H246.38V172.832H249.733C249.733 172.525 249.671 172.25 249.548 172.009C249.427 171.767 249.254 171.576 249.03 171.437C248.807 171.297 248.544 171.227 248.241 171.227C247.907 171.227 247.619 171.31 247.375 171.476C247.133 171.639 246.947 171.852 246.817 172.115C246.687 172.378 246.622 172.66 246.622 172.96V173.443C246.622 173.855 246.693 174.204 246.835 174.491C246.979 174.775 247.179 174.991 247.435 175.141C247.691 175.287 247.988 175.361 248.326 175.361C248.547 175.361 248.745 175.33 248.923 175.268C249.103 175.205 249.258 175.11 249.388 174.984C249.518 174.857 249.619 174.698 249.69 174.509L250.5 174.736C250.415 175.01 250.271 175.252 250.07 175.46C249.869 175.666 249.62 175.827 249.324 175.943C249.028 176.057 248.696 176.114 248.326 176.114ZM252.641 174.011L252.627 172.974H252.797L255.184 170.545H256.221L253.678 173.116H253.607L252.641 174.011ZM251.86 176V168.727H252.698V176H251.86ZM255.326 176L253.195 173.301L253.792 172.719L256.391 176H255.326Z" fill="#4C6572"/>
<path d="M273.434 176V175.361L275.835 172.733C276.117 172.425 276.349 172.158 276.531 171.93C276.713 171.701 276.848 171.485 276.936 171.284C277.026 171.08 277.071 170.867 277.071 170.645C277.071 170.389 277.009 170.168 276.886 169.981C276.765 169.794 276.6 169.649 276.389 169.548C276.178 169.446 275.942 169.395 275.679 169.395C275.399 169.395 275.156 169.453 274.947 169.569C274.741 169.683 274.581 169.842 274.468 170.048C274.357 170.254 274.301 170.496 274.301 170.773H273.463C273.463 170.347 273.561 169.973 273.758 169.651C273.954 169.329 274.222 169.078 274.56 168.898C274.901 168.718 275.283 168.628 275.707 168.628C276.133 168.628 276.511 168.718 276.84 168.898C277.169 169.078 277.427 169.32 277.614 169.626C277.801 169.931 277.895 170.271 277.895 170.645C277.895 170.912 277.846 171.174 277.749 171.43C277.654 171.683 277.489 171.966 277.252 172.278C277.018 172.589 276.692 172.967 276.275 173.415L274.642 175.162V175.219H278.023V176H273.434ZM281.861 176.099C281.326 176.099 280.871 175.954 280.494 175.663C280.118 175.369 279.83 174.944 279.631 174.388C279.432 173.829 279.333 173.154 279.333 172.364C279.333 171.578 279.432 170.906 279.631 170.35C279.832 169.791 280.121 169.365 280.498 169.072C280.876 168.776 281.331 168.628 281.861 168.628C282.392 168.628 282.845 168.776 283.221 169.072C283.6 169.365 283.889 169.791 284.088 170.35C284.289 170.906 284.39 171.578 284.39 172.364C284.39 173.154 284.29 173.829 284.091 174.388C283.893 174.944 283.605 175.369 283.229 175.663C282.852 175.954 282.396 176.099 281.861 176.099ZM281.861 175.318C282.392 175.318 282.804 175.062 283.097 174.551C283.391 174.04 283.537 173.311 283.537 172.364C283.537 171.734 283.47 171.198 283.335 170.755C283.202 170.312 283.011 169.975 282.76 169.743C282.511 169.511 282.212 169.395 281.861 169.395C281.336 169.395 280.925 169.654 280.629 170.173C280.333 170.689 280.185 171.419 280.185 172.364C280.185 172.993 280.251 173.528 280.384 173.969C280.517 174.409 280.707 174.744 280.956 174.974C281.207 175.203 281.509 175.318 281.861 175.318ZM289.802 176L288.14 170.545H289.02L290.199 174.722H290.256L291.421 170.545H292.316L293.466 174.707H293.523L294.702 170.545H295.583L293.921 176H293.097L291.904 171.81H291.819L290.626 176H289.802ZM298.792 176.114C298.267 176.114 297.813 175.998 297.432 175.766C297.053 175.531 296.761 175.205 296.555 174.786C296.351 174.364 296.25 173.874 296.25 173.315C296.25 172.757 296.351 172.264 296.555 171.838C296.761 171.41 297.047 171.076 297.414 170.837C297.784 170.595 298.215 170.474 298.707 170.474C298.991 170.474 299.272 170.522 299.549 170.616C299.826 170.711 300.078 170.865 300.305 171.078C300.532 171.289 300.713 171.568 300.848 171.916C300.983 172.264 301.051 172.693 301.051 173.202V173.557H296.846V172.832H300.199C300.199 172.525 300.137 172.25 300.014 172.009C299.893 171.767 299.72 171.576 299.495 171.437C299.273 171.297 299.01 171.227 298.707 171.227C298.373 171.227 298.084 171.31 297.841 171.476C297.599 171.639 297.413 171.852 297.283 172.115C297.153 172.378 297.088 172.66 297.088 172.96V173.443C297.088 173.855 297.159 174.204 297.301 174.491C297.445 174.775 297.645 174.991 297.901 175.141C298.157 175.287 298.454 175.361 298.792 175.361C299.012 175.361 299.211 175.33 299.389 175.268C299.569 175.205 299.724 175.11 299.854 174.984C299.984 174.857 300.085 174.698 300.156 174.509L300.966 174.736C300.88 175.01 300.737 175.252 300.536 175.46C300.335 175.666 300.086 175.827 299.79 175.943C299.494 176.057 299.162 176.114 298.792 176.114ZM304.613 176.114C304.087 176.114 303.634 175.998 303.252 175.766C302.874 175.531 302.581 175.205 302.375 174.786C302.172 174.364 302.07 173.874 302.07 173.315C302.07 172.757 302.172 172.264 302.375 171.838C302.581 171.41 302.868 171.076 303.235 170.837C303.604 170.595 304.035 170.474 304.527 170.474C304.811 170.474 305.092 170.522 305.369 170.616C305.646 170.711 305.898 170.865 306.125 171.078C306.353 171.289 306.534 171.568 306.669 171.916C306.804 172.264 306.871 172.693 306.871 173.202V173.557H302.667V172.832H306.019C306.019 172.525 305.957 172.25 305.834 172.009C305.713 171.767 305.541 171.576 305.316 171.437C305.093 171.297 304.83 171.227 304.527 171.227C304.194 171.227 303.905 171.31 303.661 171.476C303.419 171.639 303.234 171.852 303.103 172.115C302.973 172.378 302.908 172.66 302.908 172.96V173.443C302.908 173.855 302.979 174.204 303.121 174.491C303.266 174.775 303.466 174.991 303.721 175.141C303.977 175.287 304.274 175.361 304.613 175.361C304.833 175.361 305.032 175.33 305.209 175.268C305.389 175.205 305.544 175.11 305.674 174.984C305.805 174.857 305.905 174.698 305.976 174.509L306.786 174.736C306.701 175.01 306.557 175.252 306.356 175.46C306.155 175.666 305.906 175.827 305.61 175.943C305.315 176.057 304.982 176.114 304.613 176.114ZM308.927 174.011L308.913 172.974H309.083L311.47 170.545H312.507L309.964 173.116H309.893L308.927 174.011ZM308.146 176V168.727H308.984V176H308.146ZM311.612 176L309.481 173.301L310.078 172.719L312.677 176H311.612Z" fill="#4C6572"/>
<path d="M329.017 176V175.361L331.418 172.733C331.7 172.425 331.932 172.158 332.114 171.93C332.296 171.701 332.431 171.485 332.519 171.284C332.609 171.08 332.654 170.867 332.654 170.645C332.654 170.389 332.592 170.168 332.469 169.981C332.348 169.794 332.183 169.649 331.972 169.548C331.761 169.446 331.525 169.395 331.262 169.395C330.982 169.395 330.739 169.453 330.53 169.569C330.324 169.683 330.165 169.842 330.051 170.048C329.94 170.254 329.884 170.496 329.884 170.773H329.046C329.046 170.347 329.144 169.973 329.341 169.651C329.537 169.329 329.805 169.078 330.143 168.898C330.484 168.718 330.866 168.628 331.29 168.628C331.716 168.628 332.094 168.718 332.423 168.898C332.752 169.078 333.01 169.32 333.197 169.626C333.384 169.931 333.478 170.271 333.478 170.645C333.478 170.912 333.429 171.174 333.332 171.43C333.237 171.683 333.072 171.966 332.835 172.278C332.601 172.589 332.275 172.967 331.858 173.415L330.225 175.162V175.219H333.606V176H329.017ZM337.345 176.099C336.928 176.099 336.553 176.017 336.219 175.851C335.885 175.685 335.618 175.458 335.417 175.169C335.215 174.88 335.105 174.551 335.086 174.182H335.939C335.972 174.511 336.121 174.783 336.386 174.999C336.654 175.212 336.973 175.318 337.345 175.318C337.643 175.318 337.908 175.248 338.14 175.109C338.375 174.969 338.558 174.777 338.691 174.533C338.826 174.287 338.893 174.009 338.893 173.699C338.893 173.382 338.823 173.099 338.684 172.85C338.546 172.599 338.357 172.402 338.116 172.257C337.874 172.113 337.598 172.039 337.288 172.037C337.066 172.035 336.837 172.069 336.603 172.14C336.368 172.209 336.175 172.297 336.024 172.406L335.2 172.307L335.64 168.727H339.419V169.509H336.379L336.123 171.653H336.166C336.315 171.535 336.502 171.437 336.727 171.359C336.952 171.281 337.186 171.241 337.43 171.241C337.875 171.241 338.272 171.348 338.62 171.561C338.97 171.772 339.245 172.061 339.444 172.428C339.645 172.795 339.745 173.214 339.745 173.685C339.745 174.149 339.641 174.563 339.433 174.928C339.227 175.29 338.943 175.576 338.581 175.787C338.218 175.995 337.807 176.099 337.345 176.099ZM345.219 176L343.557 170.545H344.437L345.616 174.722H345.673L346.838 170.545H347.733L348.883 174.707H348.94L350.119 170.545H351L349.338 176H348.514L347.321 171.81H347.236L346.043 176H345.219ZM354.209 176.114C353.684 176.114 353.23 175.998 352.849 175.766C352.47 175.531 352.178 175.205 351.972 174.786C351.768 174.364 351.667 173.874 351.667 173.315C351.667 172.757 351.768 172.264 351.972 171.838C352.178 171.41 352.464 171.076 352.831 170.837C353.201 170.595 353.632 170.474 354.124 170.474C354.408 170.474 354.689 170.522 354.966 170.616C355.243 170.711 355.495 170.865 355.722 171.078C355.949 171.289 356.13 171.568 356.265 171.916C356.4 172.264 356.468 172.693 356.468 173.202V173.557H352.263V172.832H355.616C355.616 172.525 355.554 172.25 355.431 172.009C355.31 171.767 355.137 171.576 354.912 171.437C354.69 171.297 354.427 171.227 354.124 171.227C353.79 171.227 353.501 171.31 353.258 171.476C353.016 171.639 352.83 171.852 352.7 172.115C352.57 172.378 352.505 172.66 352.505 172.96V173.443C352.505 173.855 352.576 174.204 352.718 174.491C352.862 174.775 353.062 174.991 353.318 175.141C353.574 175.287 353.871 175.361 354.209 175.361C354.429 175.361 354.628 175.33 354.806 175.268C354.986 175.205 355.141 175.11 355.271 174.984C355.401 174.857 355.502 174.698 355.573 174.509L356.383 174.736C356.297 175.01 356.154 175.252 355.953 175.46C355.752 175.666 355.503 175.827 355.207 175.943C354.911 176.057 354.579 176.114 354.209 176.114ZM360.03 176.114C359.504 176.114 359.051 175.998 358.669 175.766C358.291 175.531 357.998 175.205 357.792 174.786C357.589 174.364 357.487 173.874 357.487 173.315C357.487 172.757 357.589 172.264 357.792 171.838C357.998 171.41 358.285 171.076 358.652 170.837C359.021 170.595 359.452 170.474 359.944 170.474C360.228 170.474 360.509 170.522 360.786 170.616C361.063 170.711 361.315 170.865 361.542 171.078C361.77 171.289 361.951 171.568 362.086 171.916C362.221 172.264 362.288 172.693 362.288 173.202V173.557H358.084V172.832H361.436C361.436 172.525 361.374 172.25 361.251 172.009C361.13 171.767 360.958 171.576 360.733 171.437C360.51 171.297 360.247 171.227 359.944 171.227C359.611 171.227 359.322 171.31 359.078 171.476C358.836 171.639 358.651 171.852 358.52 172.115C358.39 172.378 358.325 172.66 358.325 172.96V173.443C358.325 173.855 358.396 174.204 358.538 174.491C358.682 174.775 358.883 174.991 359.138 175.141C359.394 175.287 359.691 175.361 360.03 175.361C360.25 175.361 360.449 175.33 360.626 175.268C360.806 175.205 360.961 175.11 361.091 174.984C361.222 174.857 361.322 174.698 361.393 174.509L362.203 174.736C362.118 175.01 361.974 175.252 361.773 175.46C361.572 175.666 361.323 175.827 361.027 175.943C360.732 176.057 360.399 176.114 360.03 176.114ZM364.344 174.011L364.33 172.974H364.5L366.887 170.545H367.924L365.381 173.116H365.31L364.344 174.011ZM363.563 176V168.727H364.401V176H363.563ZM367.029 176L364.898 173.301L365.495 172.719L368.094 176H367.029Z" fill="#4C6572"/>
</g>
</g>
<circle cx="28" cy="213" r="4" fill="#E697FF"/>
<path d="M39.648 217.084C39.088 217.084 38.584 216.988 38.136 216.796C37.688 216.596 37.336 216.316 37.08 215.956C36.824 215.596 36.696 215.176 36.696 214.696H38.16C38.192 215.056 38.332 215.352 38.58 215.584C38.836 215.816 39.192 215.932 39.648 215.932C40.12 215.932 40.488 215.82 40.752 215.596C41.016 215.364 41.148 215.068 41.148 214.708C41.148 214.428 41.064 214.2 40.896 214.024C40.736 213.848 40.532 213.712 40.284 213.616C40.044 213.52 39.708 213.416 39.276 213.304C38.732 213.16 38.288 213.016 37.944 212.872C37.608 212.72 37.32 212.488 37.08 212.176C36.84 211.864 36.72 211.448 36.72 210.928C36.72 210.448 36.84 210.028 37.08 209.668C37.32 209.308 37.656 209.032 38.088 208.84C38.52 208.648 39.02 208.552 39.588 208.552C40.396 208.552 41.056 208.756 41.568 209.164C42.088 209.564 42.376 210.116 42.432 210.82H40.92C40.896 210.516 40.752 210.256 40.488 210.04C40.224 209.824 39.876 209.716 39.444 209.716C39.052 209.716 38.732 209.816 38.484 210.016C38.236 210.216 38.112 210.504 38.112 210.88C38.112 211.136 38.188 211.348 38.34 211.516C38.5 211.676 38.7 211.804 38.94 211.9C39.18 211.996 39.508 212.1 39.924 212.212C40.476 212.364 40.924 212.516 41.268 212.668C41.62 212.82 41.916 213.056 42.156 213.376C42.404 213.688 42.528 214.108 42.528 214.636C42.528 215.06 42.412 215.46 42.18 215.836C41.956 216.212 41.624 216.516 41.184 216.748C40.752 216.972 40.24 217.084 39.648 217.084ZM45.7382 211.504V215.164C45.7382 215.412 45.7942 215.592 45.9062 215.704C46.0262 215.808 46.2262 215.86 46.5062 215.86H47.3462V217H46.2662C45.6502 217 45.1782 216.856 44.8502 216.568C44.5222 216.28 44.3582 215.812 44.3582 215.164V211.504H43.5782V210.388H44.3582V208.744H45.7382V210.388H47.3462V211.504H45.7382ZM48.151 213.664C48.151 213 48.287 212.412 48.559 211.9C48.839 211.388 49.215 210.992 49.687 210.712C50.167 210.424 50.695 210.28 51.271 210.28C51.791 210.28 52.243 210.384 52.627 210.592C53.019 210.792 53.331 211.044 53.563 211.348V210.388H54.943V217H53.563V216.016C53.331 216.328 53.015 216.588 52.615 216.796C52.215 217.004 51.759 217.108 51.247 217.108C50.679 217.108 50.159 216.964 49.687 216.676C49.215 216.38 48.839 215.972 48.559 215.452C48.287 214.924 48.151 214.328 48.151 213.664ZM53.563 213.688C53.563 213.232 53.467 212.836 53.275 212.5C53.091 212.164 52.847 211.908 52.543 211.732C52.239 211.556 51.911 211.468 51.559 211.468C51.207 211.468 50.879 211.556 50.575 211.732C50.271 211.9 50.023 212.152 49.831 212.488C49.647 212.816 49.555 213.208 49.555 213.664C49.555 214.12 49.647 214.52 49.831 214.864C50.023 215.208 50.271 215.472 50.575 215.656C50.887 215.832 51.215 215.92 51.559 215.92C51.911 215.92 52.239 215.832 52.543 215.656C52.847 215.48 53.091 215.224 53.275 214.888C53.467 214.544 53.563 214.144 53.563 213.688ZM60.0758 210.28C60.5958 210.28 61.0598 210.388 61.4678 210.604C61.8838 210.82 62.2078 211.14 62.4398 211.564C62.6718 211.988 62.7878 212.5 62.7878 213.1V217H61.4318V213.304C61.4318 212.712 61.2838 212.26 60.9878 211.948C60.6918 211.628 60.2878 211.468 59.7758 211.468C59.2638 211.468 58.8558 211.628 58.5518 211.948C58.2558 212.26 58.1078 212.712 58.1078 213.304V217H56.7398V210.388H58.1078V211.144C58.3318 210.872 58.6158 210.66 58.9598 210.508C59.3118 210.356 59.6838 210.28 60.0758 210.28ZM64.0768 213.664C64.0768 213 64.2128 212.412 64.4848 211.9C64.7648 211.388 65.1408 210.992 65.6128 210.712C66.0928 210.424 66.6248 210.28 67.2088 210.28C67.6408 210.28 68.0648 210.376 68.4808 210.568C68.9048 210.752 69.2408 211 69.4888 211.312V208.12H70.8688V217H69.4888V216.004C69.2648 216.324 68.9528 216.588 68.5528 216.796C68.1608 217.004 67.7088 217.108 67.1968 217.108C66.6208 217.108 66.0928 216.964 65.6128 216.676C65.1408 216.38 64.7648 215.972 64.4848 215.452C64.2128 214.924 64.0768 214.328 64.0768 213.664ZM69.4888 213.688C69.4888 213.232 69.3928 212.836 69.2008 212.5C69.0168 212.164 68.7728 211.908 68.4688 211.732C68.1648 211.556 67.8368 211.468 67.4848 211.468C67.1328 211.468 66.8048 211.556 66.5008 211.732C66.1968 211.9 65.9488 212.152 65.7568 212.488C65.5728 212.816 65.4808 213.208 65.4808 213.664C65.4808 214.12 65.5728 214.52 65.7568 214.864C65.9488 215.208 66.1968 215.472 66.5008 215.656C66.8128 215.832 67.1408 215.92 67.4848 215.92C67.8368 215.92 68.1648 215.832 68.4688 215.656C68.7728 215.48 69.0168 215.224 69.2008 214.888C69.3928 214.544 69.4888 214.144 69.4888 213.688ZM72.2096 213.664C72.2096 213 72.3456 212.412 72.6176 211.9C72.8976 211.388 73.2736 210.992 73.7456 210.712C74.2256 210.424 74.7536 210.28 75.3296 210.28C75.8496 210.28 76.3016 210.384 76.6856 210.592C77.0776 210.792 77.3896 211.044 77.6216 211.348V210.388H79.0016V217H77.6216V216.016C77.3896 216.328 77.0736 216.588 76.6736 216.796C76.2736 217.004 75.8176 217.108 75.3056 217.108C74.7376 217.108 74.2176 216.964 73.7456 216.676C73.2736 216.38 72.8976 215.972 72.6176 215.452C72.3456 214.924 72.2096 214.328 72.2096 213.664ZM77.6216 213.688C77.6216 213.232 77.5256 212.836 77.3336 212.5C77.1496 212.164 76.9056 211.908 76.6016 211.732C76.2976 211.556 75.9696 211.468 75.6176 211.468C75.2656 211.468 74.9376 211.556 74.6336 211.732C74.3296 211.9 74.0816 212.152 73.8896 212.488C73.7056 212.816 73.6136 213.208 73.6136 213.664C73.6136 214.12 73.7056 214.52 73.8896 214.864C74.0816 215.208 74.3296 215.472 74.6336 215.656C74.9456 215.832 75.2736 215.92 75.6176 215.92C75.9696 215.92 76.2976 215.832 76.6016 215.656C76.9056 215.48 77.1496 215.224 77.3336 214.888C77.5256 214.544 77.6216 214.144 77.6216 213.688ZM82.1664 211.348C82.3664 211.012 82.6304 210.752 82.9584 210.568C83.2944 210.376 83.6904 210.28 84.1464 210.28V211.696H83.7984C83.2624 211.696 82.8544 211.832 82.5744 212.104C82.3024 212.376 82.1664 212.848 82.1664 213.52V217H80.7984V210.388H82.1664V211.348ZM86.9999 211.504V215.164C86.9999 215.412 87.0559 215.592 87.1679 215.704C87.2879 215.808 87.4879 215.86 87.7679 215.86H88.6079V217H87.5279C86.9119 217 86.4399 216.856 86.1119 216.568C85.7839 216.28 85.6199 215.812 85.6199 215.164V211.504H84.8399V210.388H85.6199V208.744H86.9999V210.388H88.6079V211.504H86.9999ZM95.7099 208.66C96.5979 208.66 97.3739 208.832 98.0379 209.176C98.7099 209.512 99.2259 210 99.5859 210.64C99.9539 211.272 100.138 212.012 100.138 212.86C100.138 213.708 99.9539 214.444 99.5859 215.068C99.2259 215.692 98.7099 216.172 98.0379 216.508C97.3739 216.836 96.5979 217 95.7099 217H92.9859V208.66H95.7099ZM95.7099 215.884C96.6859 215.884 97.4339 215.62 97.9539 215.092C98.4739 214.564 98.7339 213.82 98.7339 212.86C98.7339 211.892 98.4739 211.136 97.9539 210.592C97.4339 210.048 96.6859 209.776 95.7099 209.776H94.3539V215.884H95.7099ZM102.19 209.512C101.942 209.512 101.734 209.428 101.566 209.26C101.398 209.092 101.314 208.884 101.314 208.636C101.314 208.388 101.398 208.18 101.566 208.012C101.734 207.844 101.942 207.76 102.19 207.76C102.43 207.76 102.634 207.844 102.802 208.012C102.97 208.18 103.054 208.388 103.054 208.636C103.054 208.884 102.97 209.092 102.802 209.26C102.634 209.428 102.43 209.512 102.19 209.512ZM102.862 210.388V217H101.494V210.388H102.862ZM110.718 213.532C110.718 213.78 110.702 214.004 110.67 214.204H105.618C105.658 214.732 105.854 215.156 106.206 215.476C106.558 215.796 106.99 215.956 107.502 215.956C108.238 215.956 108.758 215.648 109.062 215.032H110.538C110.338 215.64 109.974 216.14 109.446 216.532C108.926 216.916 108.278 217.108 107.502 217.108C106.87 217.108 106.302 216.968 105.798 216.688C105.302 216.4 104.91 216 104.622 215.488C104.342 214.968 104.202 214.368 104.202 213.688C104.202 213.008 104.338 212.412 104.61 211.9C104.89 211.38 105.278 210.98 105.774 210.7C106.278 210.42 106.854 210.28 107.502 210.28C108.126 210.28 108.682 210.416 109.17 210.688C109.658 210.96 110.038 211.344 110.31 211.84C110.582 212.328 110.718 212.892 110.718 213.532ZM109.29 213.1C109.282 212.596 109.102 212.192 108.75 211.888C108.398 211.584 107.962 211.432 107.442 211.432C106.97 211.432 106.566 211.584 106.23 211.888C105.894 212.184 105.694 212.588 105.63 213.1H109.29ZM113.66 211.504V215.164C113.66 215.412 113.716 215.592 113.828 215.704C113.948 215.808 114.148 215.86 114.428 215.86H115.268V217H114.188C113.572 217 113.1 216.856 112.772 216.568C112.444 216.28 112.28 215.812 112.28 215.164V211.504H111.5V210.388H112.28V208.744H113.66V210.388H115.268V211.504H113.66Z" fill="black"/>
<circle cx="134" cy="213" r="4" fill="#56D9C8"/>
<path d="M153.76 208.66L151.288 217H149.74L147.988 210.688L146.128 217L144.592 217.012L142.228 208.66H143.68L145.408 215.452L147.28 208.66H148.816L150.556 215.416L152.296 208.66H153.76ZM155.584 209.512C155.336 209.512 155.128 209.428 154.96 209.26C154.792 209.092 154.708 208.884 154.708 208.636C154.708 208.388 154.792 208.18 154.96 208.012C155.128 207.844 155.336 207.76 155.584 207.76C155.824 207.76 156.028 207.844 156.196 208.012C156.364 208.18 156.448 208.388 156.448 208.636C156.448 208.884 156.364 209.092 156.196 209.26C156.028 209.428 155.824 209.512 155.584 209.512ZM156.256 210.388V217H154.888V210.388H156.256ZM159.648 211.504V215.164C159.648 215.412 159.704 215.592 159.816 215.704C159.936 215.808 160.136 215.86 160.416 215.86H161.256V217H160.176C159.56 217 159.088 216.856 158.76 216.568C158.432 216.28 158.268 215.812 158.268 215.164V211.504H157.488V210.388H158.268V208.744H159.648V210.388H161.256V211.504H159.648ZM165.937 210.28C166.441 210.28 166.889 210.388 167.281 210.604C167.681 210.82 167.993 211.14 168.217 211.564C168.449 211.988 168.565 212.5 168.565 213.1V217H167.209V213.304C167.209 212.712 167.061 212.26 166.765 211.948C166.469 211.628 166.065 211.468 165.553 211.468C165.041 211.468 164.633 211.628 164.329 211.948C164.033 212.26 163.885 212.712 163.885 213.304V217H162.517V208.12H163.885V211.156C164.117 210.876 164.409 210.66 164.761 210.508C165.121 210.356 165.513 210.28 165.937 210.28ZM184.287 208.66L181.815 217H180.267L178.515 210.688L176.655 217L175.119 217.012L172.755 208.66H174.207L175.935 215.452L177.807 208.66H179.343L181.083 215.416L182.823 208.66H184.287ZM191.476 213.532C191.476 213.78 191.46 214.004 191.428 214.204H186.376C186.416 214.732 186.612 215.156 186.964 215.476C187.316 215.796 187.748 215.956 188.26 215.956C188.996 215.956 189.516 215.648 189.82 215.032H191.296C191.096 215.64 190.732 216.14 190.204 216.532C189.684 216.916 189.036 217.108 188.26 217.108C187.628 217.108 187.06 216.968 186.556 216.688C186.06 216.4 185.668 216 185.38 215.488C185.1 214.968 184.96 214.368 184.96 213.688C184.96 213.008 185.096 212.412 185.368 211.9C185.648 211.38 186.036 210.98 186.532 210.7C187.036 210.42 187.612 210.28 188.26 210.28C188.884 210.28 189.44 210.416 189.928 210.688C190.416 210.96 190.796 211.344 191.068 211.84C191.34 212.328 191.476 212.892 191.476 213.532ZM190.048 213.1C190.04 212.596 189.86 212.192 189.508 211.888C189.156 211.584 188.72 211.432 188.2 211.432C187.728 211.432 187.324 211.584 186.988 211.888C186.652 212.184 186.452 212.588 186.388 213.1H190.048ZM194.19 208.12V217H192.822V208.12H194.19ZM197.354 208.12V217H195.986V208.12H197.354ZM207.154 210.28C207.674 210.28 208.138 210.388 208.546 210.604C208.962 210.82 209.286 211.14 209.518 211.564C209.758 211.988 209.878 212.5 209.878 213.1V217H208.522V213.304C208.522 212.712 208.374 212.26 208.078 211.948C207.782 211.628 207.378 211.468 206.866 211.468C206.354 211.468 205.946 211.628 205.642 211.948C205.346 212.26 205.198 212.712 205.198 213.304V217H203.842V213.304C203.842 212.712 203.694 212.26 203.398 211.948C203.102 211.628 202.698 211.468 202.186 211.468C201.674 211.468 201.266 211.628 200.962 211.948C200.666 212.26 200.518 212.712 200.518 213.304V217H199.15V210.388H200.518V211.144C200.742 210.872 201.026 210.66 201.37 210.508C201.714 210.356 202.082 210.28 202.474 210.28C203.002 210.28 203.474 210.392 203.89 210.616C204.306 210.84 204.626 211.164 204.85 211.588C205.05 211.188 205.362 210.872 205.786 210.64C206.21 210.4 206.666 210.28 207.154 210.28ZM211.163 213.664C211.163 213 211.299 212.412 211.571 211.9C211.851 211.388 212.227 210.992 212.699 210.712C213.179 210.424 213.707 210.28 214.283 210.28C214.803 210.28 215.255 210.384 215.639 210.592C216.031 210.792 216.343 211.044 216.575 211.348V210.388H217.955V217H216.575V216.016C216.343 216.328 216.027 216.588 215.627 216.796C215.227 217.004 214.771 217.108 214.259 217.108C213.691 217.108 213.171 216.964 212.699 216.676C212.227 216.38 211.851 215.972 211.571 215.452C211.299 214.924 211.163 214.328 211.163 213.664ZM216.575 213.688C216.575 213.232 216.479 212.836 216.287 212.5C216.103 212.164 215.859 211.908 215.555 211.732C215.251 211.556 214.923 211.468 214.571 211.468C214.219 211.468 213.891 211.556 213.587 211.732C213.283 211.9 213.035 212.152 212.843 212.488C212.659 212.816 212.567 213.208 212.567 213.664C212.567 214.12 212.659 214.52 212.843 214.864C213.035 215.208 213.283 215.472 213.587 215.656C213.899 215.832 214.227 215.92 214.571 215.92C214.923 215.92 215.251 215.832 215.555 215.656C215.859 215.48 216.103 215.224 216.287 214.888C216.479 214.544 216.575 214.144 216.575 213.688ZM221.348 211.504V215.164C221.348 215.412 221.404 215.592 221.516 215.704C221.636 215.808 221.836 215.86 222.116 215.86H222.956V217H221.876C221.26 217 220.788 216.856 220.46 216.568C220.132 216.28 219.968 215.812 219.968 215.164V211.504H219.188V210.388H219.968V208.744H221.348V210.388H222.956V211.504H221.348ZM230.276 213.532C230.276 213.78 230.26 214.004 230.228 214.204H225.176C225.216 214.732 225.412 215.156 225.764 215.476C226.116 215.796 226.548 215.956 227.06 215.956C227.796 215.956 228.316 215.648 228.62 215.032H230.096C229.896 215.64 229.532 216.14 229.004 216.532C228.484 216.916 227.836 217.108 227.06 217.108C226.428 217.108 225.86 216.968 225.356 216.688C224.86 216.4 224.468 216 224.18 215.488C223.9 214.968 223.76 214.368 223.76 213.688C223.76 213.008 223.896 212.412 224.168 211.9C224.448 211.38 224.836 210.98 225.332 210.7C225.836 210.42 226.412 210.28 227.06 210.28C227.684 210.28 228.24 210.416 228.728 210.688C229.216 210.96 229.596 211.344 229.868 211.84C230.14 212.328 230.276 212.892 230.276 213.532ZM228.848 213.1C228.84 212.596 228.66 212.192 228.308 211.888C227.956 211.584 227.52 211.432 227 211.432C226.528 211.432 226.124 211.584 225.788 211.888C225.452 212.184 225.252 212.588 225.188 213.1H228.848Z" fill="black"/>
<defs>
<clipPath id="clip0_11588_30311">
<rect width="356" height="132" fill="white" transform="translate(20 46)"/>
</clipPath>
<clipPath id="clip1_11588_30311">
<rect width="333" height="132" fill="white" transform="translate(43 46)"/>
</clipPath>
</defs>
</svg>
