<svg width="47" height="60" viewBox="0 0 47 60" fill="none" xmlns="http://www.w3.org/2000/svg">
<path d="M23.2627 1.39062C26.161 1.2618 29.0538 1.74224 31.7588 2.80371C34.4837 3.87303 36.9576 5.50685 39.0215 7.59961C41.0853 9.69226 42.6937 12.1979 43.7461 14.9551C44.791 17.6928 45.2637 20.6195 45.1367 23.5508L45.1328 23.8887C45.0488 27.3815 43.6782 30.7464 42.0674 33.5166C40.4165 36.3556 38.4449 38.6839 37.1006 40.0547L24.3203 55.6055L23.2422 56.9189L22.1895 55.585L22.1885 55.584L22.1875 55.582C22.1863 55.5805 22.184 55.5782 22.1816 55.5752L22.0742 55.4385C21.9988 55.343 21.8873 55.203 21.7451 55.0234C21.4603 54.6637 21.0507 54.1461 20.5508 53.5176C19.5509 52.2604 18.191 50.5578 16.752 48.7744C13.8461 45.1732 10.6949 41.3428 9.47363 40.1045C8.12849 38.7405 6.12975 36.3898 4.45898 33.5166C2.80582 30.6737 1.40781 27.2043 1.3916 23.6133L1.37305 23.0596C1.3164 20.2931 1.79375 17.5398 2.78027 14.9551C3.83268 12.1978 5.442 9.69231 7.50586 7.59961C9.56968 5.50696 12.0428 3.87303 14.7676 2.80371C17.4721 1.7424 20.3649 1.26205 23.2627 1.39062Z" fill="#333651" stroke="white" stroke-width="2.73683"/>
</svg>
