<svg width="400" height="89" viewBox="0 0 400 89" fill="none" xmlns="http://www.w3.org/2000/svg">
<rect width="399.311" height="88.3069" rx="20" fill="url(#paint0_linear_11688_29121)"/>
<path d="M43.963 24.484C43.158 20.164 45.205 16.43 47.12 14.167C49.243 11.946 51.082 11 51.082 11C51.082 11 50.756 13.21 49.601 15.712C48.623 18.369 46.858 21.426 43.963 24.484Z" fill="url(#paint1_linear_11688_29121)"/>
<path d="M41.3335 40.9207C41.3365 40.9207 41.3395 40.9217 41.3435 40.9217C41.6325 37.5547 43.3845 35.1857 44.7395 33.8227C46.6865 32.1247 48.3965 31.6787 48.3965 31.6787C48.3965 31.6787 48.2755 32.1697 48.0675 32.9737C47.7965 33.7467 47.4175 34.8237 46.9915 36.0197C46.1205 38.1937 44.6065 40.7187 42.1555 42.7147L42.2905 44.5107C42.3115 44.8797 42.0175 45.2407 41.6375 45.2727C41.2655 45.3267 40.9195 45.0347 40.8975 44.6527L40.7675 42.8487C37.9005 41.0877 36.6545 37.8327 36.2155 34.9547C35.8785 33.3767 36.0315 31.9617 36.1305 30.9277C36.2825 29.9057 36.3795 29.2627 36.3795 29.2627C36.3795 29.2627 37.7515 30.6237 38.9045 32.9957C40.0755 34.9737 40.8715 37.5687 41.3335 40.9207Z" fill="url(#paint2_linear_11688_29121)"/>
<path d="M42.4303 29.8833C43.4523 26.8803 45.4203 25.0483 47.0333 24.0393C48.9713 22.7443 50.8223 22.7663 50.8223 22.7663C50.8223 22.7663 50.5933 23.1803 50.2223 23.8773C49.9073 24.5843 49.4153 25.5533 48.6883 26.5653C47.2533 28.3623 45.6313 30.5373 42.8273 31.8573L42.4933 33.5863C42.4093 33.9563 42.0593 34.2383 41.6893 34.1853C41.3063 34.1303 41.0273 33.7823 41.1123 33.3903L41.4333 31.7213C36.6233 26.9843 39.7743 17.8783 40.0473 18.0653C40.0473 18.0653 40.8953 19.5683 41.7213 22.0933C42.3253 24.1513 42.6663 26.6993 42.3893 29.8803C42.4033 29.8783 42.4163 29.8813 42.4303 29.8833Z" fill="url(#paint3_linear_11688_29121)"/>
<path d="M40.6112 55.6027C43.1282 57.2717 45.8952 59.4817 49.1982 62.6147C49.2182 62.5907 49.2292 62.5587 49.2542 62.5367C49.2662 62.5247 49.2792 62.5167 49.2922 62.5047C46.3422 59.0347 46.3982 55.0857 47.2392 52.8277C47.9782 50.2807 49.7752 48.9307 49.7752 48.9307C49.5652 49.3727 51.9442 55.0607 50.5572 62.8887C51.1262 63.4687 52.2562 64.6037 52.3232 64.5397C52.6282 64.7567 52.6802 65.1927 52.4542 65.4977C52.2132 65.8017 51.7572 65.8437 51.4312 65.6047C51.3682 65.6837 50.2402 64.5427 49.6302 63.9157C45.6922 64.7057 41.6362 62.4717 39.2182 59.4887C36.5842 56.2237 35.5722 52.9147 35.7362 52.9467C35.7352 52.9577 37.6622 53.8057 40.6112 55.6027Z" fill="url(#paint4_linear_11688_29121)"/>
<path d="M58.6734 69.3258C58.6924 69.2878 58.7204 69.2588 58.7424 69.2248C54.2914 66.9208 52.5004 63.1888 52.5414 60.4128C52.3234 57.5058 53.5864 55.5908 53.5864 55.5908C53.5214 55.6788 54.8494 57.1798 56.1324 59.6408C57.4444 61.8318 59.0724 64.9838 59.8604 69.0588L62.2954 70.0008C62.6424 70.1528 62.8594 70.5028 62.7514 70.8928C62.6424 71.2428 62.2284 71.4818 61.8594 71.3188L59.3594 70.3608C55.7844 72.8018 50.9064 72.0858 47.1984 70.1538C45.2824 69.1308 43.7794 67.7588 42.6804 66.8018C41.6024 65.7998 41.1564 65.0058 41.1564 65.0058C41.1564 65.0058 43.5404 65.1248 47.0764 65.7788C50.1694 66.5738 54.1004 67.4188 58.6734 69.3258Z" fill="url(#paint5_linear_11688_29121)"/>
<path d="M70.2812 72.4779C70.2812 72.4719 70.2812 72.4669 70.2812 72.4619C70.2863 72.4299 70.2952 72.3999 70.3022 72.3689C65.3673 71.5499 62.3913 68.6859 61.2263 66.2249C60.5083 64.9499 60.2983 63.6449 60.2253 62.7519C60.1483 61.8589 60.2133 61.3369 60.2133 61.3369C60.2133 61.3369 62.0103 62.3389 64.3403 64.1469C66.5653 65.7669 69.4103 68.1569 71.3693 71.8629L73.9823 72.0489C74.3503 72.0809 74.6562 72.3969 74.6562 72.7879C74.6353 73.1799 74.3083 73.4749 73.9163 73.4409L71.2443 73.2479C68.5563 76.5799 63.9992 77.5679 60.0282 77.2509C55.8052 76.8369 52.6272 74.9319 52.6272 74.9429C52.6272 74.9429 54.8703 74.1059 58.2863 73.3099C61.4473 72.6949 65.3223 72.0819 70.2812 72.4779Z" fill="url(#paint6_linear_11688_29121)"/>
<path d="M34.0178 39.668C34.0178 39.668 35.8358 40.986 37.9138 43.479C39.6868 45.729 41.5628 48.81 43.3678 52.958C43.4118 52.943 43.4598 52.945 43.5078 52.94C42.1628 48.604 43.5298 45.02 45.0748 42.987C46.7198 40.658 48.6348 39.832 48.6348 39.832C48.5158 39.885 48.8208 42.03 48.0798 44.86C47.7128 47.403 46.5728 50.632 44.4978 53.781L45.4888 55.985C45.6418 56.332 45.4888 56.767 45.1628 56.964C44.8138 57.16 44.4228 56.996 44.2468 56.636L43.2278 54.355C39.1468 53.606 36.6308 49.886 35.2468 46.483C34.6588 44.687 34.3208 42.955 34.1468 41.705C33.9318 40.452 34.0178 39.668 34.0178 39.668Z" fill="url(#paint7_linear_11688_29121)"/>
<path d="M114.691 24.6079V39.1533H111.182V27.8891H111.097L107.844 29.8778V26.838L111.431 24.6079H114.691ZM123.922 39.5084C122.653 39.5084 121.559 39.2078 120.641 38.6064C119.722 38.0004 119.014 37.1315 118.517 35.9999C118.02 34.8635 117.774 33.4975 117.779 31.9019C117.783 30.3063 118.032 28.9521 118.524 27.8394C119.021 26.722 119.727 25.8721 120.641 25.2897C121.559 24.7026 122.653 24.409 123.922 24.409C125.191 24.409 126.285 24.7026 127.203 25.2897C128.127 25.8721 128.837 26.722 129.334 27.8394C129.831 28.9568 130.077 30.311 130.073 31.9019C130.073 33.5023 129.824 34.8706 129.327 36.007C128.83 37.1434 128.122 38.0122 127.203 38.6135C126.289 39.2101 125.196 39.5084 123.922 39.5084ZM123.922 36.632C124.68 36.632 125.293 36.2461 125.762 35.4743C126.23 34.6978 126.462 33.507 126.458 31.9019C126.458 30.8508 126.351 29.9843 126.138 29.3025C125.925 28.6159 125.629 28.1046 125.25 27.7684C124.871 27.4322 124.429 27.2641 123.922 27.2641C123.169 27.2641 122.561 27.6453 122.097 28.4076C121.633 29.1652 121.398 30.3299 121.394 31.9019C121.389 32.9672 121.491 33.8503 121.699 34.551C121.912 35.2518 122.21 35.775 122.594 36.1206C122.977 36.4616 123.42 36.632 123.922 36.632ZM138.102 39.5084C136.833 39.5084 135.739 39.2078 134.82 38.6064C133.902 38.0004 133.194 37.1315 132.697 35.9999C132.2 34.8635 131.954 33.4975 131.958 31.9019C131.963 30.3063 132.212 28.9521 132.704 27.8394C133.201 26.722 133.907 25.8721 134.82 25.2897C135.739 24.7026 136.833 24.409 138.102 24.409C139.371 24.409 140.464 24.7026 141.383 25.2897C142.306 25.8721 143.017 26.722 143.514 27.8394C144.011 28.9568 144.257 30.311 144.252 31.9019C144.252 33.5023 144.004 34.8706 143.507 36.007C143.009 37.1434 142.302 38.0122 141.383 38.6135C140.469 39.2101 139.375 39.5084 138.102 39.5084ZM138.102 36.632C138.859 36.632 139.472 36.2461 139.941 35.4743C140.41 34.6978 140.642 33.507 140.637 31.9019C140.637 30.8508 140.531 29.9843 140.318 29.3025C140.105 28.6159 139.809 28.1046 139.43 27.7684C139.051 27.4322 138.608 27.2641 138.102 27.2641C137.349 27.2641 136.74 27.6453 136.276 28.4076C135.812 29.1652 135.578 30.3299 135.573 31.9019C135.569 32.9672 135.67 33.8503 135.879 34.551C136.092 35.2518 136.39 35.775 136.774 36.1206C137.157 36.4616 137.6 36.632 138.102 36.632ZM154.412 36.426V35.659C154.412 35.0624 154.54 34.5108 154.796 34.0042C155.056 33.4975 155.432 33.0903 155.925 32.7826C156.417 32.4748 157.019 32.3209 157.729 32.3209C158.453 32.3209 159.062 32.4748 159.554 32.7826C160.051 33.0856 160.425 33.4904 160.676 33.9971C160.932 34.499 161.06 35.0529 161.06 35.659V36.426C161.06 37.0226 160.932 37.5742 160.676 38.0809C160.421 38.5875 160.044 38.9947 159.547 39.3025C159.05 39.6102 158.444 39.7641 157.729 39.7641C157.009 39.7641 156.403 39.6102 155.911 39.3025C155.418 38.9947 155.044 38.5875 154.789 38.0809C154.538 37.5742 154.412 37.0226 154.412 36.426ZM156.678 35.659V36.426C156.678 36.7291 156.751 37.0203 156.898 37.2996C157.049 37.579 157.326 37.7187 157.729 37.7187C158.141 37.7187 158.418 37.5837 158.56 37.3138C158.702 37.0392 158.773 36.7433 158.773 36.426V35.659C158.773 35.3418 158.704 35.0435 158.567 34.7641C158.434 34.48 158.155 34.338 157.729 34.338C157.331 34.338 157.057 34.48 156.905 34.7641C156.753 35.0435 156.678 35.3418 156.678 35.659ZM146.869 28.1022V27.3351C146.869 26.7291 147 26.1751 147.26 25.6732C147.525 25.1666 147.904 24.7617 148.396 24.4587C148.889 24.151 149.485 23.9971 150.186 23.9971C150.911 23.9971 151.519 24.151 152.012 24.4587C152.509 24.7617 152.885 25.1666 153.141 25.6732C153.396 26.1751 153.524 26.7291 153.524 27.3351V28.1022C153.524 28.7082 153.394 29.2622 153.134 29.7641C152.878 30.266 152.502 30.6661 152.004 30.9644C151.507 31.2627 150.901 31.4118 150.186 31.4118C149.471 31.4118 148.865 31.2603 148.368 30.9573C147.876 30.6543 147.502 30.2518 147.246 29.7499C146.995 29.248 146.869 28.6988 146.869 28.1022ZM149.156 27.3351V28.1022C149.156 28.4194 149.23 28.7153 149.377 28.99C149.528 29.2599 149.798 29.3948 150.186 29.3948C150.603 29.3948 150.88 29.2599 151.017 28.99C151.159 28.7153 151.23 28.4194 151.23 28.1022V27.3351C151.23 27.0179 151.164 26.7196 151.031 26.4403C150.899 26.1562 150.617 26.0141 150.186 26.0141C149.789 26.0141 149.516 26.1585 149.369 26.4474C149.227 26.7362 149.156 27.0321 149.156 27.3351ZM147.942 39.1533L157.942 24.6079H159.881L149.881 39.1533H147.942ZM168.091 24.6079H172.445L176.138 33.6135H176.308L180.002 24.6079H184.355V39.1533H180.932V30.2187H180.811L177.317 39.061H175.129L171.635 30.1689H171.514V39.1533H168.091V24.6079ZM191.64 39.3593C190.495 39.3593 189.51 39.1249 188.686 38.6562C187.867 38.1827 187.235 37.5245 186.79 36.6817C186.349 35.8342 186.129 34.8517 186.129 33.7343C186.129 32.6121 186.349 31.6296 186.79 30.7868C187.235 29.9393 187.867 29.2812 188.686 28.8124C189.51 28.3389 190.495 28.1022 191.64 28.1022C192.786 28.1022 193.769 28.3389 194.588 28.8124C195.412 29.2812 196.044 29.9393 196.484 30.7868C196.929 31.6296 197.152 32.6121 197.152 33.7343C197.152 34.8517 196.929 35.8342 196.484 36.6817C196.044 37.5245 195.412 38.1827 194.588 38.6562C193.769 39.1249 192.786 39.3593 191.64 39.3593ZM191.662 36.7385C192.078 36.7385 192.431 36.6107 192.72 36.355C193.009 36.0993 193.229 35.7442 193.381 35.2897C193.537 34.8351 193.615 34.3096 193.615 33.713C193.615 33.1069 193.537 32.5766 193.381 32.1221C193.229 31.6675 193.009 31.3124 192.72 31.0567C192.431 30.801 192.078 30.6732 191.662 30.6732C191.231 30.6732 190.866 30.801 190.568 31.0567C190.274 31.3124 190.05 31.6675 189.893 32.1221C189.742 32.5766 189.666 33.1069 189.666 33.713C189.666 34.3096 189.742 34.8351 189.893 35.2897C190.05 35.7442 190.274 36.0993 190.568 36.355C190.866 36.6107 191.231 36.7385 191.662 36.7385ZM202.404 32.9317V39.1533H198.931V28.2442H202.233V30.2471H202.354C202.596 29.5795 203.008 29.0563 203.59 28.6775C204.172 28.2939 204.866 28.1022 205.671 28.1022C206.438 28.1022 207.103 28.275 207.667 28.6206C208.235 28.9616 208.675 29.4398 208.988 30.0553C209.305 30.6661 209.461 31.3811 209.456 32.2002V39.1533H205.983V32.882C205.988 32.276 205.834 31.8025 205.522 31.4616C205.214 31.1206 204.786 30.9502 204.236 30.9502C203.872 30.9502 203.55 31.0307 203.27 31.1917C202.996 31.3479 202.783 31.5728 202.631 31.8664C202.484 32.1599 202.409 32.5151 202.404 32.9317ZM216.706 39.3593C215.565 39.3593 214.58 39.1344 213.752 38.6846C212.928 38.23 212.293 37.5837 211.848 36.7456C211.408 35.9028 211.188 34.9014 211.188 33.7414C211.188 32.6145 211.41 31.6296 211.855 30.7868C212.3 29.9393 212.928 29.2812 213.737 28.8124C214.547 28.3389 215.501 28.1022 216.6 28.1022C217.376 28.1022 218.086 28.2229 218.73 28.4644C219.374 28.7059 219.931 29.0634 220.399 29.5368C220.868 30.0103 221.233 30.5951 221.493 31.2911C221.753 31.9824 221.884 32.7755 221.884 33.6704V34.5368H212.402V32.5198H218.652C218.647 32.1505 218.56 31.8214 218.389 31.5326C218.219 31.2438 217.985 31.0189 217.686 30.8579C217.393 30.6921 217.054 30.6093 216.671 30.6093C216.282 30.6093 215.934 30.6969 215.627 30.8721C215.319 31.0425 215.075 31.2769 214.895 31.5752C214.715 31.8688 214.62 32.2026 214.611 32.5766V34.6292C214.611 35.0742 214.699 35.4649 214.874 35.801C215.049 36.1325 215.298 36.3905 215.619 36.5752C215.941 36.7599 216.325 36.8522 216.77 36.8522C217.078 36.8522 217.357 36.8096 217.608 36.7243C217.859 36.6391 218.075 36.5136 218.254 36.3479C218.434 36.1822 218.569 35.9786 218.659 35.7371L221.848 35.8295C221.716 36.5444 221.424 37.1671 220.975 37.6974C220.53 38.2229 219.945 38.6325 219.22 38.926C218.496 39.2149 217.658 39.3593 216.706 39.3593ZM225.488 43.2442C225.071 43.2442 224.678 43.2111 224.309 43.1448C223.94 43.0832 223.623 43.0004 223.357 42.8962L224.124 40.3749C224.465 40.4885 224.773 40.5548 225.048 40.5738C225.327 40.5927 225.566 40.5477 225.765 40.4388C225.969 40.3347 226.125 40.1476 226.234 39.8778L226.369 39.551L222.491 28.2442H226.127L228.137 36.0283H228.251L230.289 28.2442H233.947L229.835 40.1974C229.636 40.7939 229.354 41.3195 228.99 41.7741C228.63 42.2333 228.163 42.5932 227.59 42.8536C227.022 43.114 226.321 43.2442 225.488 43.2442ZM242.26 31.9303V34.6079H235.527V31.9303H242.26ZM244.712 39.1533V24.6079H250.778C251.867 24.6079 252.778 24.7617 253.512 25.0695C254.251 25.3773 254.805 25.8081 255.174 26.3621C255.548 26.9161 255.735 27.5577 255.735 28.2868C255.735 28.8408 255.619 29.3356 255.387 29.7712C255.155 30.2021 254.835 30.5596 254.428 30.8437C254.021 31.1278 253.55 31.3266 253.015 31.4403V31.5823C253.602 31.6107 254.144 31.7693 254.641 32.0581C255.143 32.347 255.546 32.7494 255.849 33.2655C256.152 33.7769 256.303 34.383 256.303 35.0837C256.303 35.865 256.104 36.5634 255.706 37.1789C255.309 37.7897 254.733 38.2726 253.981 38.6278C253.228 38.9781 252.314 39.1533 251.239 39.1533H244.712ZM248.228 36.3195H250.401C251.163 36.3195 251.724 36.1751 252.084 35.8863C252.449 35.5974 252.631 35.195 252.631 34.6789C252.631 34.3048 252.544 33.9829 252.368 33.713C252.193 33.4384 251.945 33.2277 251.623 33.0809C251.301 32.9294 250.915 32.8536 250.465 32.8536H248.228V36.3195ZM248.228 30.588H250.174C250.557 30.588 250.898 30.5241 251.197 30.3962C251.495 30.2684 251.727 30.0837 251.893 29.8422C252.063 29.6008 252.148 29.3096 252.148 28.9687C252.148 28.481 251.975 28.0974 251.63 27.8181C251.284 27.5387 250.818 27.3991 250.231 27.3991H248.228V30.588ZM261.069 39.338C260.373 39.338 259.755 39.222 259.215 38.99C258.68 38.7532 258.256 38.3981 257.944 37.9246C257.636 37.4464 257.482 36.8474 257.482 36.1278C257.482 35.5217 257.589 35.0103 257.802 34.5937C258.015 34.177 258.308 33.8385 258.682 33.578C259.056 33.3176 259.487 33.1211 259.975 32.9885C260.463 32.8512 260.983 32.7589 261.537 32.7116C262.158 32.6547 262.657 32.5956 263.036 32.534C263.415 32.4677 263.689 32.3754 263.86 32.257C264.035 32.1339 264.123 31.9611 264.123 31.7385V31.703C264.123 31.3385 263.997 31.0567 263.746 30.8579C263.495 30.659 263.157 30.5596 262.731 30.5596C262.271 30.5596 261.902 30.659 261.623 30.8579C261.343 31.0567 261.166 31.3314 261.09 31.6817L257.887 31.5681C257.982 30.9052 258.225 30.3134 258.618 29.7925C259.016 29.267 259.561 28.855 260.252 28.5567C260.948 28.2537 261.784 28.1022 262.759 28.1022C263.455 28.1022 264.097 28.185 264.684 28.3508C265.271 28.5117 265.782 28.7485 266.218 29.061C266.653 29.3688 266.99 29.7475 267.226 30.1974C267.468 30.6472 267.589 31.1609 267.589 31.7385V39.1533H264.322V37.6334H264.236C264.042 38.0028 263.794 38.3153 263.491 38.5709C263.192 38.8266 262.84 39.0184 262.432 39.1462C262.03 39.2741 261.575 39.338 261.069 39.338ZM262.141 37.0653C262.515 37.0653 262.851 36.9895 263.15 36.838C263.453 36.6865 263.694 36.4781 263.874 36.213C264.054 35.9431 264.144 35.6306 264.144 35.2755V34.2385C264.045 34.2906 263.924 34.338 263.782 34.3806C263.644 34.4232 263.493 34.4635 263.327 34.5013C263.162 34.5392 262.991 34.5724 262.816 34.6008C262.641 34.6292 262.473 34.6552 262.312 34.6789C261.985 34.731 261.706 34.8115 261.474 34.9204C261.246 35.0293 261.071 35.1713 260.948 35.3465C260.83 35.517 260.77 35.7206 260.77 35.9573C260.77 36.3171 260.898 36.5918 261.154 36.7812C261.414 36.9706 261.743 37.0653 262.141 37.0653ZM274.805 39.3593C273.654 39.3593 272.667 39.1225 271.843 38.6491C271.024 38.1756 270.394 37.5174 269.954 36.6746C269.513 35.8271 269.293 34.847 269.293 33.7343C269.293 32.6169 269.513 31.6367 269.954 30.7939C270.399 29.9464 271.031 29.2859 271.85 28.8124C272.674 28.3389 273.656 28.1022 274.797 28.1022C275.806 28.1022 276.684 28.2845 277.432 28.6491C278.185 29.0136 278.772 29.5297 279.194 30.1974C279.62 30.8602 279.845 31.6391 279.868 32.534H276.623C276.556 31.9753 276.367 31.5373 276.055 31.2201C275.747 30.9028 275.344 30.7442 274.847 30.7442C274.445 30.7442 274.092 30.8579 273.789 31.0851C273.486 31.3077 273.249 31.6391 273.079 32.0795C272.913 32.5151 272.83 33.0548 272.83 33.6988C272.83 34.3427 272.913 34.8872 273.079 35.3323C273.249 35.7726 273.486 36.1064 273.789 36.3337C274.092 36.5563 274.445 36.6675 274.847 36.6675C275.169 36.6675 275.453 36.5989 275.699 36.4616C275.95 36.3242 276.156 36.123 276.317 35.8579C276.478 35.588 276.58 35.2613 276.623 34.8778H279.868C279.835 35.7774 279.61 36.5634 279.194 37.2357C278.782 37.9081 278.202 38.4313 277.454 38.8053C276.71 39.1746 275.827 39.3593 274.805 39.3593ZM284.778 36.2911L284.792 32.1505H285.275L288.343 28.2442H292.278L287.718 33.8408H286.802L284.778 36.2911ZM281.646 39.1533V24.6079H285.119V39.1533H281.646ZM288.421 39.1533L285.566 34.6221L287.853 32.1576L292.434 39.1533H288.421ZM158.262 53.3593C158.181 53.061 158.063 52.7982 157.906 52.5709C157.75 52.3389 157.558 52.1424 157.331 51.9814C157.104 51.8205 156.843 51.6997 156.55 51.6192C156.256 51.534 155.934 51.4914 155.584 51.4914C154.878 51.4914 154.268 51.6618 153.752 52.0028C153.24 52.3437 152.845 52.8408 152.566 53.4942C152.286 54.1429 152.146 54.9313 152.146 55.8593C152.146 56.7921 152.281 57.5875 152.551 58.2456C152.821 58.9038 153.212 59.4057 153.723 59.7513C154.235 60.097 154.855 60.2698 155.584 60.2698C156.228 60.2698 156.772 60.1656 157.218 59.9573C157.667 59.7442 158.008 59.4436 158.24 59.0553C158.472 58.6671 158.588 58.2101 158.588 57.6846L159.242 57.7627H155.705V55.1988H161.976V57.1235C161.976 58.4256 161.699 59.5406 161.145 60.4687C160.596 61.3967 159.838 62.1093 158.872 62.6064C157.911 63.1036 156.806 63.3522 155.556 63.3522C154.168 63.3522 152.949 63.0515 151.898 62.4502C150.847 61.8489 150.028 60.9919 149.441 59.8792C148.853 58.7617 148.56 57.436 148.56 55.9019C148.56 54.7087 148.737 53.6505 149.093 52.7272C149.448 51.7992 149.942 51.0132 150.577 50.3692C151.216 49.7253 151.955 49.2376 152.793 48.9062C153.636 48.5747 154.542 48.409 155.513 48.409C156.356 48.409 157.139 48.5297 157.864 48.7712C158.593 49.0127 159.237 49.3536 159.796 49.7939C160.359 50.2343 160.816 50.7575 161.166 51.3635C161.517 51.9696 161.735 52.6349 161.82 53.3593H158.262ZM171.086 58.4445V52.2442H174.552V63.1533H171.243V61.1221H171.129C170.888 61.7897 170.476 62.32 169.893 62.713C169.316 63.1012 168.617 63.2954 167.798 63.2954C167.055 63.2954 166.401 63.1249 165.838 62.784C165.274 62.4431 164.836 61.9672 164.524 61.3564C164.211 60.7409 164.053 60.0212 164.048 59.1974V52.2442H167.521V58.5155C167.526 59.1074 167.682 59.5738 167.99 59.9147C168.298 60.2556 168.717 60.426 169.247 60.426C169.593 60.426 169.903 60.3503 170.177 60.1988C170.457 60.0425 170.677 59.8176 170.838 59.5241C171.004 59.2258 171.086 58.8659 171.086 58.4445ZM179.838 63.338C179.142 63.338 178.524 63.222 177.985 62.99C177.45 62.7532 177.026 62.3981 176.713 61.9246C176.405 61.4464 176.252 60.8474 176.252 60.1278C176.252 59.5217 176.358 59.0103 176.571 58.5937C176.784 58.177 177.078 57.8385 177.452 57.578C177.826 57.3176 178.257 57.1211 178.744 56.9885C179.232 56.8512 179.753 56.7589 180.307 56.7116C180.927 56.6547 181.427 56.5956 181.806 56.534C182.184 56.4677 182.459 56.3754 182.629 56.257C182.805 56.1339 182.892 55.9611 182.892 55.7385V55.703C182.892 55.3385 182.767 55.0567 182.516 54.8579C182.265 54.659 181.926 54.5596 181.5 54.5596C181.041 54.5596 180.672 54.659 180.392 54.8579C180.113 55.0567 179.935 55.3314 179.86 55.6817L176.656 55.5681C176.751 54.9052 176.995 54.3134 177.388 53.7925C177.786 53.267 178.33 52.855 179.021 52.5567C179.718 52.2537 180.553 52.1022 181.529 52.1022C182.225 52.1022 182.866 52.185 183.453 52.3508C184.04 52.5117 184.552 52.7485 184.987 53.061C185.423 53.3688 185.759 53.7475 185.996 54.1974C186.237 54.6472 186.358 55.1609 186.358 55.7385V63.1533H183.091V61.6334H183.006C182.812 62.0028 182.563 62.3153 182.26 62.5709C181.962 62.8266 181.609 63.0184 181.202 63.1462C180.799 63.2741 180.345 63.338 179.838 63.338ZM180.911 61.0653C181.285 61.0653 181.621 60.9895 181.919 60.838C182.222 60.6865 182.464 60.4781 182.644 60.213C182.824 59.9431 182.914 59.6306 182.914 59.2755V58.2385C182.814 58.2906 182.693 58.338 182.551 58.3806C182.414 58.4232 182.262 58.4635 182.097 58.5013C181.931 58.5392 181.761 58.5724 181.585 58.6008C181.41 58.6292 181.242 58.6552 181.081 58.6789C180.754 58.731 180.475 58.8115 180.243 58.9204C180.016 59.0293 179.841 59.1713 179.718 59.3465C179.599 59.517 179.54 59.7206 179.54 59.9573C179.54 60.3171 179.668 60.5918 179.923 60.7812C180.184 60.9706 180.513 61.0653 180.911 61.0653ZM188.482 63.1533V52.2442H191.855V54.2329H191.969C192.168 53.5132 192.492 52.9781 192.942 52.6278C193.392 52.2726 193.915 52.0951 194.512 52.0951C194.673 52.0951 194.838 52.1069 195.009 52.1306C195.179 52.1495 195.338 52.1803 195.485 52.2229V55.2414C195.319 55.1846 195.101 55.1396 194.831 55.1064C194.566 55.0733 194.329 55.0567 194.121 55.0567C193.709 55.0567 193.337 55.1491 193.006 55.3337C192.679 55.5136 192.421 55.767 192.232 56.0937C192.047 56.4156 191.955 56.7944 191.955 57.23V63.1533H188.482ZM199.565 63.338C198.869 63.338 198.251 63.222 197.711 62.99C197.176 62.7532 196.752 62.3981 196.44 61.9246C196.132 61.4464 195.978 60.8474 195.978 60.1278C195.978 59.5217 196.085 59.0103 196.298 58.5937C196.511 58.177 196.804 57.8385 197.178 57.578C197.552 57.3176 197.983 57.1211 198.471 56.9885C198.959 56.8512 199.48 56.7589 200.034 56.7116C200.654 56.6547 201.153 56.5956 201.532 56.534C201.911 56.4677 202.186 56.3754 202.356 56.257C202.531 56.1339 202.619 55.9611 202.619 55.7385V55.703C202.619 55.3385 202.493 55.0567 202.242 54.8579C201.991 54.659 201.653 54.5596 201.227 54.5596C200.767 54.5596 200.398 54.659 200.119 54.8579C199.839 55.0567 199.662 55.3314 199.586 55.6817L196.383 55.5681C196.478 54.9052 196.722 54.3134 197.115 53.7925C197.512 53.267 198.057 52.855 198.748 52.5567C199.444 52.2537 200.28 52.1022 201.255 52.1022C201.951 52.1022 202.593 52.185 203.18 52.3508C203.767 52.5117 204.278 52.7485 204.714 53.061C205.15 53.3688 205.486 53.7475 205.722 54.1974C205.964 54.6472 206.085 55.1609 206.085 55.7385V63.1533H202.818V61.6334H202.732C202.538 62.0028 202.29 62.3153 201.987 62.5709C201.688 62.8266 201.336 63.0184 200.928 63.1462C200.526 63.2741 200.071 63.338 199.565 63.338ZM200.637 61.0653C201.011 61.0653 201.347 60.9895 201.646 60.838C201.949 60.6865 202.19 60.4781 202.37 60.213C202.55 59.9431 202.64 59.6306 202.64 59.2755V58.2385C202.541 58.2906 202.42 58.338 202.278 58.3806C202.141 58.4232 201.989 58.4635 201.823 58.5013C201.658 58.5392 201.487 58.5724 201.312 58.6008C201.137 58.6292 200.969 58.6552 200.808 58.6789C200.481 58.731 200.202 58.8115 199.97 58.9204C199.742 59.0293 199.567 59.1713 199.444 59.3465C199.326 59.517 199.267 59.7206 199.267 59.9573C199.267 60.3171 199.394 60.5918 199.65 60.7812C199.91 60.9706 200.24 61.0653 200.637 61.0653ZM211.681 56.9317V63.1533H208.208V52.2442H211.511V54.2471H211.632C211.873 53.5795 212.285 53.0563 212.867 52.6775C213.45 52.2939 214.143 52.1022 214.948 52.1022C215.715 52.1022 216.381 52.275 216.944 52.6206C217.512 52.9616 217.953 53.4398 218.265 54.0553C218.582 54.6661 218.739 55.3811 218.734 56.2002V63.1533H215.261V56.882C215.266 56.276 215.112 55.8025 214.799 55.4616C214.491 55.1206 214.063 54.9502 213.514 54.9502C213.149 54.9502 212.827 55.0307 212.548 55.1917C212.273 55.3479 212.06 55.5728 211.909 55.8664C211.762 56.1599 211.686 56.5151 211.681 56.9317ZM227.042 52.2442V54.801H220.16V52.2442H227.042ZM221.601 49.6306H225.074V59.7229C225.074 59.936 225.108 60.1088 225.174 60.2414C225.245 60.3692 225.347 60.4616 225.479 60.5184C225.612 60.5705 225.77 60.5965 225.955 60.5965C226.088 60.5965 226.227 60.5847 226.374 60.561C226.526 60.5326 226.639 60.5089 226.715 60.49L227.241 62.9971C227.075 63.0444 226.84 63.1036 226.537 63.1746C226.239 63.2456 225.882 63.2906 225.465 63.3096C224.651 63.3474 223.952 63.2528 223.37 63.0255C222.792 62.7935 222.349 62.4336 222.042 61.9459C221.739 61.4582 221.592 60.8451 221.601 60.1064V49.6306ZM233.796 63.3593C232.655 63.3593 231.67 63.1344 230.841 62.6846C230.018 62.23 229.383 61.5837 228.938 60.7456C228.498 59.9028 228.278 58.9014 228.278 57.7414C228.278 56.6145 228.5 55.6296 228.945 54.7868C229.39 53.9393 230.018 53.2812 230.827 52.8124C231.637 52.3389 232.591 52.1022 233.689 52.1022C234.466 52.1022 235.176 52.2229 235.82 52.4644C236.464 52.7059 237.02 53.0634 237.489 53.5368C237.958 54.0103 238.323 54.5951 238.583 55.2911C238.843 55.9824 238.974 56.7755 238.974 57.6704V58.5368H229.492V56.5198H235.742C235.737 56.1505 235.65 55.8214 235.479 55.5326C235.309 55.2438 235.074 55.0189 234.776 54.8579C234.483 54.6921 234.144 54.6093 233.76 54.6093C233.372 54.6093 233.024 54.6969 232.716 54.8721C232.409 55.0425 232.165 55.2769 231.985 55.5752C231.805 55.8688 231.71 56.2026 231.701 56.5766V58.6292C231.701 59.0742 231.788 59.4649 231.964 59.801C232.139 60.1325 232.387 60.3905 232.709 60.5752C233.031 60.7599 233.415 60.8522 233.86 60.8522C234.168 60.8522 234.447 60.8096 234.698 60.7243C234.949 60.6391 235.164 60.5136 235.344 60.3479C235.524 60.1822 235.659 59.9786 235.749 59.7371L238.938 59.8295C238.805 60.5444 238.514 61.1671 238.064 61.6974C237.619 62.2229 237.035 62.6325 236.31 62.926C235.586 63.2149 234.748 63.3593 233.796 63.3593ZM245.847 63.3593C244.706 63.3593 243.721 63.1344 242.892 62.6846C242.068 62.23 241.434 61.5837 240.989 60.7456C240.548 59.9028 240.328 58.9014 240.328 57.7414C240.328 56.6145 240.551 55.6296 240.996 54.7868C241.441 53.9393 242.068 53.2812 242.878 52.8124C243.688 52.3389 244.642 52.1022 245.74 52.1022C246.517 52.1022 247.227 52.2229 247.871 52.4644C248.515 52.7059 249.071 53.0634 249.54 53.5368C250.009 54.0103 250.373 54.5951 250.634 55.2911C250.894 55.9824 251.024 56.7755 251.024 57.6704V58.5368H241.543V56.5198H247.793C247.788 56.1505 247.7 55.8214 247.53 55.5326C247.36 55.2438 247.125 55.0189 246.827 54.8579C246.533 54.6921 246.195 54.6093 245.811 54.6093C245.423 54.6093 245.075 54.6969 244.767 54.8721C244.459 55.0425 244.216 55.2769 244.036 55.5752C243.856 55.8688 243.761 56.2026 243.752 56.5766V58.6292C243.752 59.0742 243.839 59.4649 244.014 59.801C244.19 60.1325 244.438 60.3905 244.76 60.5752C245.082 60.7599 245.466 60.8522 245.911 60.8522C246.218 60.8522 246.498 60.8096 246.749 60.7243C247 60.6391 247.215 60.5136 247.395 60.3479C247.575 60.1822 247.71 59.9786 247.8 59.7371L250.989 59.8295C250.856 60.5444 250.565 61.1671 250.115 61.6974C249.67 62.2229 249.085 62.6325 248.361 62.926C247.637 63.2149 246.798 63.3593 245.847 63.3593Z" fill="url(#paint8_linear_11688_29121)"/>
<path d="M355.349 24.484C356.154 20.164 354.107 16.43 352.192 14.167C350.069 11.946 348.23 11 348.23 11C348.23 11 348.556 13.21 349.711 15.712C350.689 18.369 352.454 21.426 355.349 24.484Z" fill="url(#paint9_linear_11688_29121)"/>
<path d="M357.979 40.9207C357.976 40.9207 357.973 40.9217 357.969 40.9217C357.68 37.5547 355.928 35.1857 354.573 33.8227C352.626 32.1247 350.916 31.6787 350.916 31.6787C350.916 31.6787 351.037 32.1697 351.245 32.9737C351.516 33.7467 351.895 34.8237 352.321 36.0197C353.192 38.1937 354.706 40.7187 357.157 42.7147L357.022 44.5107C357.001 44.8797 357.295 45.2407 357.675 45.2727C358.047 45.3267 358.393 45.0347 358.415 44.6527L358.545 42.8487C361.412 41.0877 362.658 37.8327 363.097 34.9547C363.434 33.3767 363.281 31.9617 363.182 30.9277C363.03 29.9057 362.933 29.2627 362.933 29.2627C362.933 29.2627 361.561 30.6237 360.408 32.9957C359.237 34.9737 358.441 37.5687 357.979 40.9207Z" fill="url(#paint10_linear_11688_29121)"/>
<path d="M356.882 29.8833C355.86 26.8803 353.892 25.0483 352.279 24.0393C350.341 22.7443 348.49 22.7663 348.49 22.7663C348.49 22.7663 348.719 23.1803 349.09 23.8773C349.405 24.5843 349.897 25.5533 350.624 26.5653C352.059 28.3623 353.681 30.5373 356.485 31.8573L356.819 33.5863C356.903 33.9563 357.253 34.2383 357.623 34.1853C358.006 34.1303 358.285 33.7823 358.2 33.3903L357.879 31.7213C362.689 26.9843 359.538 17.8783 359.265 18.0653C359.265 18.0653 358.417 19.5683 357.591 22.0933C356.987 24.1513 356.646 26.6993 356.923 29.8803C356.909 29.8783 356.896 29.8813 356.882 29.8833Z" fill="url(#paint11_linear_11688_29121)"/>
<path d="M358.701 55.6027C356.184 57.2717 353.417 59.4817 350.114 62.6147C350.094 62.5907 350.083 62.5587 350.058 62.5367C350.046 62.5247 350.033 62.5167 350.02 62.5047C352.97 59.0347 352.914 55.0857 352.073 52.8277C351.334 50.2807 349.537 48.9307 349.537 48.9307C349.747 49.3727 347.368 55.0607 348.755 62.8887C348.186 63.4687 347.056 64.6037 346.989 64.5397C346.684 64.7567 346.632 65.1927 346.858 65.4977C347.099 65.8017 347.555 65.8437 347.881 65.6047C347.944 65.6837 349.072 64.5427 349.682 63.9157C353.62 64.7057 357.676 62.4717 360.094 59.4887C362.728 56.2237 363.74 52.9147 363.576 52.9467C363.577 52.9577 361.65 53.8057 358.701 55.6027Z" fill="url(#paint12_linear_11688_29121)"/>
<path d="M340.639 69.3258C340.62 69.2878 340.592 69.2588 340.57 69.2248C345.021 66.9208 346.812 63.1888 346.771 60.4128C346.989 57.5058 345.726 55.5908 345.726 55.5908C345.791 55.6788 344.463 57.1798 343.18 59.6408C341.868 61.8318 340.24 64.9838 339.452 69.0588L337.017 70.0008C336.67 70.1528 336.453 70.5028 336.561 70.8928C336.67 71.2428 337.084 71.4818 337.453 71.3188L339.953 70.3608C343.528 72.8018 348.406 72.0858 352.114 70.1538C354.03 69.1308 355.533 67.7588 356.632 66.8018C357.71 65.7998 358.156 65.0058 358.156 65.0058C358.156 65.0058 355.772 65.1248 352.236 65.7788C349.143 66.5738 345.212 67.4188 340.639 69.3258Z" fill="url(#paint13_linear_11688_29121)"/>
<path d="M329.031 72.4779C329.031 72.4719 329.031 72.4669 329.031 72.4619C329.026 72.4299 329.017 72.3999 329.01 72.3689C333.945 71.5499 336.921 68.6859 338.086 66.2249C338.804 64.9499 339.014 63.6449 339.087 62.7519C339.164 61.8589 339.099 61.3369 339.099 61.3369C339.099 61.3369 337.302 62.3389 334.972 64.1469C332.747 65.7669 329.902 68.1569 327.943 71.8629L325.33 72.0489C324.962 72.0809 324.656 72.3969 324.656 72.7879C324.677 73.1799 325.004 73.4749 325.396 73.4409L328.068 73.2479C330.756 76.5799 335.313 77.5679 339.284 77.2509C343.507 76.8369 346.685 74.9319 346.685 74.9429C346.685 74.9429 344.442 74.1059 341.026 73.3099C337.865 72.6949 333.99 72.0819 329.031 72.4779Z" fill="url(#paint14_linear_11688_29121)"/>
<path d="M365.295 39.668C365.295 39.668 363.477 40.986 361.399 43.479C359.626 45.729 357.75 48.81 355.945 52.958C355.901 52.943 355.853 52.945 355.805 52.94C357.15 48.604 355.783 45.02 354.238 42.987C352.593 40.658 350.678 39.832 350.678 39.832C350.797 39.885 350.492 42.03 351.233 44.86C351.6 47.403 352.74 50.632 354.815 53.781L353.824 55.985C353.671 56.332 353.824 56.767 354.15 56.964C354.499 57.16 354.89 56.996 355.066 56.636L356.085 54.355C360.166 53.606 362.682 49.886 364.066 46.483C364.654 44.687 364.992 42.955 365.166 41.705C365.381 40.452 365.295 39.668 365.295 39.668Z" fill="url(#paint15_linear_11688_29121)"/>
<defs>
<linearGradient id="paint0_linear_11688_29121" x1="399.311" y1="44.1535" x2="0" y2="44.1535" gradientUnits="userSpaceOnUse">
<stop stop-color="#FEEECC"/>
<stop offset="0.5" stop-color="white"/>
<stop offset="1" stop-color="#FEEDCF"/>
</linearGradient>
<linearGradient id="paint1_linear_11688_29121" x1="54.3285" y1="11" x2="54.3285" y2="77.3069" gradientUnits="userSpaceOnUse">
<stop stop-color="#E4B764"/>
<stop offset="0.475962" stop-color="#FFD581"/>
<stop offset="1" stop-color="#C09240"/>
</linearGradient>
<linearGradient id="paint2_linear_11688_29121" x1="54.3285" y1="11" x2="54.3285" y2="77.3069" gradientUnits="userSpaceOnUse">
<stop stop-color="#E4B764"/>
<stop offset="0.475962" stop-color="#FFD581"/>
<stop offset="1" stop-color="#C09240"/>
</linearGradient>
<linearGradient id="paint3_linear_11688_29121" x1="54.3285" y1="11" x2="54.3285" y2="77.3069" gradientUnits="userSpaceOnUse">
<stop stop-color="#E4B764"/>
<stop offset="0.475962" stop-color="#FFD581"/>
<stop offset="1" stop-color="#C09240"/>
</linearGradient>
<linearGradient id="paint4_linear_11688_29121" x1="54.3285" y1="11" x2="54.3285" y2="77.3069" gradientUnits="userSpaceOnUse">
<stop stop-color="#E4B764"/>
<stop offset="0.475962" stop-color="#FFD581"/>
<stop offset="1" stop-color="#C09240"/>
</linearGradient>
<linearGradient id="paint5_linear_11688_29121" x1="54.3285" y1="11" x2="54.3285" y2="77.3069" gradientUnits="userSpaceOnUse">
<stop stop-color="#E4B764"/>
<stop offset="0.475962" stop-color="#FFD581"/>
<stop offset="1" stop-color="#C09240"/>
</linearGradient>
<linearGradient id="paint6_linear_11688_29121" x1="54.3285" y1="11" x2="54.3285" y2="77.3069" gradientUnits="userSpaceOnUse">
<stop stop-color="#E4B764"/>
<stop offset="0.475962" stop-color="#FFD581"/>
<stop offset="1" stop-color="#C09240"/>
</linearGradient>
<linearGradient id="paint7_linear_11688_29121" x1="54.3285" y1="11" x2="54.3285" y2="77.3069" gradientUnits="userSpaceOnUse">
<stop stop-color="#E4B764"/>
<stop offset="0.475962" stop-color="#FFD581"/>
<stop offset="1" stop-color="#C09240"/>
</linearGradient>
<linearGradient id="paint8_linear_11688_29121" x1="199.656" y1="20.1533" x2="199.656" y2="68.1533" gradientUnits="userSpaceOnUse">
<stop stop-color="#CC9E4C"/>
<stop offset="1" stop-color="#9A7C46"/>
</linearGradient>
<linearGradient id="paint9_linear_11688_29121" x1="344.984" y1="11" x2="344.984" y2="77.3069" gradientUnits="userSpaceOnUse">
<stop stop-color="#E4B764"/>
<stop offset="0.475962" stop-color="#FFD581"/>
<stop offset="1" stop-color="#C09240"/>
</linearGradient>
<linearGradient id="paint10_linear_11688_29121" x1="344.984" y1="11" x2="344.984" y2="77.3069" gradientUnits="userSpaceOnUse">
<stop stop-color="#E4B764"/>
<stop offset="0.475962" stop-color="#FFD581"/>
<stop offset="1" stop-color="#C09240"/>
</linearGradient>
<linearGradient id="paint11_linear_11688_29121" x1="344.984" y1="11" x2="344.984" y2="77.3069" gradientUnits="userSpaceOnUse">
<stop stop-color="#E4B764"/>
<stop offset="0.475962" stop-color="#FFD581"/>
<stop offset="1" stop-color="#C09240"/>
</linearGradient>
<linearGradient id="paint12_linear_11688_29121" x1="344.984" y1="11" x2="344.984" y2="77.3069" gradientUnits="userSpaceOnUse">
<stop stop-color="#E4B764"/>
<stop offset="0.475962" stop-color="#FFD581"/>
<stop offset="1" stop-color="#C09240"/>
</linearGradient>
<linearGradient id="paint13_linear_11688_29121" x1="344.984" y1="11" x2="344.984" y2="77.3069" gradientUnits="userSpaceOnUse">
<stop stop-color="#E4B764"/>
<stop offset="0.475962" stop-color="#FFD581"/>
<stop offset="1" stop-color="#C09240"/>
</linearGradient>
<linearGradient id="paint14_linear_11688_29121" x1="344.984" y1="11" x2="344.984" y2="77.3069" gradientUnits="userSpaceOnUse">
<stop stop-color="#E4B764"/>
<stop offset="0.475962" stop-color="#FFD581"/>
<stop offset="1" stop-color="#C09240"/>
</linearGradient>
<linearGradient id="paint15_linear_11688_29121" x1="344.984" y1="11" x2="344.984" y2="77.3069" gradientUnits="userSpaceOnUse">
<stop stop-color="#E4B764"/>
<stop offset="0.475962" stop-color="#FFD581"/>
<stop offset="1" stop-color="#C09240"/>
</linearGradient>
</defs>
</svg>
