<?xml version="1.0" encoding="iso-8859-1"?>
<!-- Generator: Adobe Illustrator 19.0.0, SVG Export Plug-In . SVG Version: 6.00 Build 0)  -->
<svg version="1.1" id="Capa_1" xmlns="http://www.w3.org/2000/svg" xmlns:xlink="http://www.w3.org/1999/xlink" x="0px" y="0px"
	 viewBox="0 0 512 512" style="enable-background:new 0 0 512 512;" xml:space="preserve">
<g>
	<g>
		<g>
			<path d="M512,290.133v-153.6c-0.015-14.132-11.468-25.585-25.6-25.6v-51.2c-0.015-14.132-11.468-25.585-25.6-25.6h-9.396
				C447.324,14.283,429.865,0.028,409.6,0H102.4C82.135,0.028,64.676,14.283,60.596,34.133H51.2
				c-14.132,0.015-25.585,11.468-25.6,25.6v51.2c-14.132,0.015-25.585,11.468-25.6,25.6v153.6
				c0.033,10.813,6.868,20.435,17.067,24.027v148.212C6.868,465.965,0.033,475.587,0,486.4v17.067
				c-0.001,2.263,0.898,4.434,2.499,6.035c1.6,1.6,3.771,2.499,6.035,2.499H76.8c2.263,0.001,4.434-0.898,6.035-2.499
				c1.6-1.6,2.499-3.771,2.499-6.035V486.4c-0.033-10.813-6.868-20.435-17.067-24.028V315.733h17.067v128
				c0.015,14.132,11.468,25.585,25.6,25.6h290.133c14.132-0.015,25.585-11.468,25.6-25.6v-128h17.067v146.639
				c-10.199,3.592-17.033,13.214-17.067,24.028v17.067c-0.001,2.263,0.898,4.434,2.499,6.035c1.6,1.6,3.771,2.499,6.035,2.499
				h68.267c2.263,0.001,4.434-0.898,6.035-2.499c1.6-1.6,2.499-3.771,2.499-6.035V486.4c-0.033-10.813-6.868-20.435-17.067-24.028
				V314.161C505.132,310.568,511.967,300.946,512,290.133z M451.404,51.2h9.396c4.711,0.005,8.529,3.822,8.533,8.533v51.2h-42.667
				c-11.199,0-15.05-15.557-16.373-25.67C430.281,84.931,447.363,70.777,451.404,51.2z M102.4,17.067h307.2
				c14.138,0,25.6,11.462,25.6,25.6s-11.461,25.6-25.6,25.6H102.4c-14.138,0-25.6-11.461-25.6-25.6S88.262,17.067,102.4,17.067z
				 M400.274,110.933H111.726c4.031-7.993,6.501-16.682,7.278-25.6h273.992C393.773,94.252,396.243,102.94,400.274,110.933z
				 M42.667,59.733c0.005-4.711,3.822-8.529,8.533-8.533h9.396c4.04,19.564,21.103,33.713,41.077,34.06
				c-1.359,10.109-5.249,25.673-16.34,25.673H42.667V59.733z M68.267,494.933h-51.2V486.4c0.005-4.711,3.822-8.529,8.533-8.533
				h34.133c4.711,0.005,8.529,3.822,8.533,8.533V494.933z M34.133,460.8V315.733H51.2V460.8H34.133z M85.333,298.667h-25.6H51.2
				v-34.133h34.133V298.667z M85.333,247.467H51.2v-8.533c0.005-4.711,3.822-8.529,8.533-8.533h25.6V247.467z M409.6,443.733
				c-0.005,4.711-3.822,8.529-8.533,8.533H110.933c-4.711-0.005-8.529-3.822-8.533-8.533v-179.2h307.2V443.733z M102.4,247.467
				V230.4h51.2v17.067H102.4z M170.667,247.467V230.4h281.6c4.711,0.005,8.529,3.822,8.533,8.533v8.533H170.667z M469.333,315.733
				h8.533V460.8H460.8V315.733H469.333z M426.667,298.667v-34.133H460.8v34.133H426.667z M494.933,494.933h-51.2V486.4
				c0.005-4.711,3.823-8.529,8.533-8.533H486.4c4.711,0.005,8.529,3.822,8.533,8.533V494.933z M486.4,298.667h-8.533v-59.733
				c-0.015-14.132-11.468-25.585-25.6-25.6H59.733c-14.132,0.015-25.585,11.468-25.6,25.6v59.733H25.6
				c-4.711-0.005-8.529-3.822-8.533-8.533v-153.6c0.005-4.711,3.822-8.529,8.533-8.533h460.8c4.711,0.005,8.529,3.822,8.533,8.533
				v153.6C494.929,294.844,491.111,298.662,486.4,298.667z"/>
			<path d="M136.533,145.067H51.2c-9.421,0.011-17.056,7.646-17.067,17.067V179.2c0.011,9.421,7.645,17.056,17.067,17.067h85.333
				c9.421-0.011,17.056-7.645,17.067-17.067v-17.067C153.589,152.712,145.955,145.077,136.533,145.067z M51.2,179.2v-17.067h85.333
				l0.009,17.067H51.2z"/>
			<path d="M384,145.067h-8.533c-4.713,0-8.533,3.821-8.533,8.533c0,4.713,3.82,8.533,8.533,8.533H384
				c4.713,0,8.533-3.821,8.533-8.533C392.533,148.887,388.713,145.067,384,145.067z"/>
			<path d="M426.667,145.067h-8.533c-4.713,0-8.533,3.821-8.533,8.533c0,4.713,3.82,8.533,8.533,8.533h8.533
				c4.713,0,8.533-3.821,8.533-8.533C435.2,148.887,431.38,145.067,426.667,145.067z"/>
			<path d="M469.333,145.067H460.8c-4.713,0-8.533,3.821-8.533,8.533c0,4.713,3.821,8.533,8.533,8.533h8.533
				c4.713,0,8.533-3.821,8.533-8.533C477.867,148.887,474.046,145.067,469.333,145.067z"/>
			<path d="M145.067,435.2h25.6c14.132-0.015,25.585-11.468,25.6-25.6V307.2c-0.015-14.132-11.468-25.585-25.6-25.6h-25.6
				c-14.132,0.015-25.585,11.468-25.6,25.6v102.4C119.482,423.732,130.935,435.185,145.067,435.2z M136.533,307.2
				c0.005-4.711,3.822-8.529,8.533-8.533h25.6c4.711,0.005,8.529,3.822,8.533,8.533v102.4c-0.005,4.711-3.822,8.529-8.533,8.533
				h-25.6c-4.711-0.005-8.529-3.822-8.533-8.533V307.2z"/>
			<path d="M221.867,298.667H384c4.713,0,8.533-3.82,8.533-8.533s-3.82-8.533-8.533-8.533H221.867c-4.713,0-8.533,3.82-8.533,8.533
				S217.154,298.667,221.867,298.667z"/>
			<path d="M221.867,332.8H384c4.713,0,8.533-3.82,8.533-8.533s-3.82-8.533-8.533-8.533H221.867c-4.713,0-8.533,3.82-8.533,8.533
				S217.154,332.8,221.867,332.8z"/>
			<path d="M221.867,366.933H384c4.713,0,8.533-3.82,8.533-8.533s-3.82-8.533-8.533-8.533H221.867c-4.713,0-8.533,3.82-8.533,8.533
				S217.154,366.933,221.867,366.933z"/>
			<path d="M221.867,401.067H384c4.713,0,8.533-3.821,8.533-8.533c0-4.713-3.82-8.533-8.533-8.533H221.867
				c-4.713,0-8.533,3.821-8.533,8.533C213.333,397.246,217.154,401.067,221.867,401.067z"/>
			<path d="M221.867,435.2H384c4.713,0,8.533-3.82,8.533-8.533s-3.82-8.533-8.533-8.533H221.867c-4.713,0-8.533,3.82-8.533,8.533
				S217.154,435.2,221.867,435.2z"/>
		</g>
	</g>
</g>
<g>
</g>
<g>
</g>
<g>
</g>
<g>
</g>
<g>
</g>
<g>
</g>
<g>
</g>
<g>
</g>
<g>
</g>
<g>
</g>
<g>
</g>
<g>
</g>
<g>
</g>
<g>
</g>
<g>
</g>
</svg>
