<?xml version="1.0" encoding="utf-8"?>
<!-- Generator: Adobe Illustrator 16.0.0, SVG Export Plug-In . SVG Version: 6.00 Build 0)  -->
<!DOCTYPE svg PUBLIC "-//W3C//DTD SVG 1.1//EN" "http://www.w3.org/Graphics/SVG/1.1/DTD/svg11.dtd">
<svg version="1.1" id="Layer_1" xmlns="http://www.w3.org/2000/svg" xmlns:xlink="http://www.w3.org/1999/xlink" x="0px" y="0px"
	 width="235.781px" height="121.56px" viewBox="0 0 235.781 121.56" enable-background="new 0 0 235.781 121.56"
	 xml:space="preserve">
<g>
	<defs>
		<rect id="SVGID_1_" width="235.781" height="121.56"/>
	</defs>
	<clipPath id="SVGID_2_">
		<use xlink:href="#SVGID_1_"  overflow="visible"/>
	</clipPath>
	<path clip-path="url(#SVGID_2_)" d="M0,86.039c0-3.268,0.929-5.824,2.791-7.675c1.861-1.85,4.433-2.776,7.717-2.776h21.016v8.866
		H14.122c-1.752,0-2.63,0.869-2.63,2.605v12.717c0,0.652,0.22,1.195,0.658,1.628c0.436,0.436,0.985,0.652,1.642,0.652h5.648
		c2.059,0,3.983-0.075,5.779-0.234c2.103-0.204,4.204-0.412,6.305-0.62v8.537c-2.453,0.353-4.926,0.525-7.419,0.525
		c-2.148,0.396-4.479,0.595-6.996,0.595H9.85c-2.976,0-5.362-0.896-7.157-2.679C0.897,106.394,0,104.021,0,101.057V86.039z"/>
	<path clip-path="url(#SVGID_2_)" d="M44.989,111.055c-2.979,0-5.363-0.898-7.158-2.696c-1.798-1.795-2.693-4.179-2.693-7.157
		v-2.955c0-2.979,0.895-5.362,2.693-7.158c1.795-1.795,4.179-2.695,7.158-2.695h13.463v-2.522c0-0.629-0.219-1.154-0.655-1.572
		c-0.439-0.422-0.987-0.633-1.642-0.633h-5.683c-2.035,0-3.951,0.104-5.746,0.31c-2.101,0.273-4.202,0.405-6.306,0.405v-8.103
		c2.41-0.37,4.86-0.555,7.356-0.555c2.145-0.398,4.488-0.596,7.028-0.596h7.29c2.978,0,5.362,0.894,7.161,2.68
		c1.792,1.783,2.692,4.156,2.692,7.117v25.473H59.765l-0.655-3.284c-1.14,0.744-2.364,1.402-3.68,1.971
		c-1.137,0.482-2.407,0.933-3.806,1.348c-1.403,0.416-2.849,0.624-4.335,0.624H44.989z M50.57,101.86
		c0.831,0,1.709-0.066,2.629-0.196c0.918-0.133,1.772-0.286,2.56-0.462c0.921-0.173,1.818-0.393,2.693-0.658v-3.939h-9.521
		c-0.658,0-1.207,0.22-1.642,0.655c-0.439,0.438-0.658,0.987-0.658,1.646v0.654c0,0.654,0.219,1.204,0.658,1.643
		c0.435,0.438,0.984,0.658,1.642,0.658H50.57z"/>
	<path clip-path="url(#SVGID_2_)" d="M122.156,99.888c0,3.285-0.93,5.856-2.791,7.718s-4.432,2.791-7.717,2.791h-7.224v11.164
		H92.932v-11.164h-7.224c-3.285,0-5.859-0.93-7.717-2.791c-1.862-1.861-2.791-4.433-2.791-7.718V86.096
		c0-3.284,0.929-5.856,2.791-7.718c1.858-1.857,4.432-2.791,7.717-2.791h7.224V64.421h11.492v11.166h7.224
		c3.285,0,5.856,0.934,7.717,2.791c1.861,1.861,2.791,4.434,2.791,7.718V99.888z M86.692,98.905c0,1.749,0.874,2.626,2.626,2.626
		h4.598V84.454h-4.598c-1.752,0-2.626,0.878-2.626,2.629V98.905z M110.664,87.083c0-1.751-0.877-2.629-2.626-2.629h-3.943v17.077
		h3.943c1.749,0,2.626-0.877,2.626-2.626V87.083z"/>
	<polygon clip-path="url(#SVGID_2_)" points="150.729,75.587 162.879,75.587 162.879,110.397 151.384,110.397 151.384,91.349 
		140.221,110.397 128.069,110.397 128.069,75.587 139.563,75.587 139.563,94.633 	"/>
	<polygon clip-path="url(#SVGID_2_)" points="189.147,84.454 189.147,110.397 177.652,110.397 177.652,84.454 166.815,84.454 
		166.815,75.587 199.982,75.587 199.982,84.454 	"/>
	<path clip-path="url(#SVGID_2_)" d="M210.822,111.055c-2.979,0-5.365-0.898-7.16-2.696c-1.795-1.795-2.692-4.179-2.692-7.157
		v-2.955c0-2.979,0.897-5.362,2.692-7.158c1.795-1.795,4.182-2.695,7.16-2.695h13.464v-2.522c0-0.629-0.22-1.154-0.658-1.572
		c-0.438-0.422-0.984-0.633-1.643-0.633h-5.68c-2.037,0-3.954,0.104-5.746,0.31c-2.104,0.273-4.205,0.405-6.306,0.405v-8.103
		c2.407-0.37,4.86-0.555,7.356-0.555c2.145-0.398,4.487-0.596,7.027-0.596h7.29c2.976,0,5.362,0.894,7.158,2.68
		c1.794,1.783,2.692,4.156,2.692,7.117v25.473H225.6l-0.658-3.284c-1.138,0.744-2.364,1.402-3.677,1.971
		c-1.141,0.482-2.41,0.933-3.81,1.348c-1.403,0.416-2.846,0.624-4.335,0.624H210.822z M216.404,101.86
		c0.831,0,1.708-0.066,2.626-0.196c0.921-0.133,1.775-0.286,2.563-0.462c0.917-0.173,1.814-0.393,2.692-0.658v-3.939h-9.524
		c-0.658,0-1.203,0.22-1.642,0.655c-0.439,0.438-0.656,0.987-0.656,1.646v0.654c0,0.654,0.217,1.204,0.656,1.643
		c0.438,0.438,0.983,0.658,1.642,0.658H216.404z"/>
	<path clip-path="url(#SVGID_2_)" fill="#6D58A2" d="M211.184,70.996c2.3-0.396,4.805-0.594,7.454-0.594h7.29
		c3.945,0,7.238,1.224,9.854,3.535V38.752h-0.003c0-2.961-0.897-5.333-2.692-7.118c-1.796-1.787-4.183-2.679-7.158-2.679h-7.29
		c-2.54,0-4.883,0.198-7.027,0.593c-2.496,0-4.949,0.187-7.356,0.556v41.417C206.528,71.204,208.852,71.013,211.184,70.996"/>
	<rect x="166.815" y="39.463" clip-path="url(#SVGID_2_)" fill="#008BCC" width="33.167" height="31.395"/>
	<path clip-path="url(#SVGID_2_)" fill="#6EA927" d="M144.29,75.587v1.631l2.36-4.023c0.849-1.445,2.401-2.337,4.078-2.337h12.15
		V18.941h-15.105l-5.256,8.98v-8.98h-14.448v51.917h11.493C142.174,70.858,144.29,72.976,144.29,75.587"/>
	<path clip-path="url(#SVGID_2_)" fill="#F8E100" d="M75.2,74.586c2.71-2.441,6.217-3.729,10.508-3.729h2.497v-6.437
		c0-2.608,2.115-4.727,4.727-4.727h11.493c2.611,0,4.727,2.119,4.727,4.727v6.437h2.496c4.286,0,7.799,1.287,10.508,3.731V15.65
		l2.75-3.24V0h-11.451v6.75h-9.051V0H92.952v6.75h-9.05V0H72.449v12.411l2.751,3.24V74.586z"/>
	<path clip-path="url(#SVGID_2_)" fill="#E68F00" d="M45.349,70.996c2.3-0.396,4.805-0.594,7.455-0.594h7.29
		c3.942,0,7.23,1.221,9.853,3.531V30.479l-0.003,8.273c0-2.961-0.898-13.606-2.693-15.391c-1.795-1.787-4.182-2.679-7.157-2.679
		h-7.29c-2.54,0-4.884,0.198-7.028,0.593c-2.496,0-4.95,0.187-7.357,0.556v49.689C40.697,71.204,43.02,71.013,45.349,70.996"/>
</g>
<g>
	<defs>
		<path id="SVGID_3_" d="M10.508,32.294c-3.285,0-5.856,0.926-7.717,2.776C0.929,36.921,0,39.478,0,42.744v31.831
			c2.71-2.436,6.222-3.717,10.508-3.717h21.016V32.294H10.508z"/>
	</defs>
	<clipPath id="SVGID_4_">
		<use xlink:href="#SVGID_3_"  overflow="visible"/>
	</clipPath>
	
		<linearGradient id="SVGID_5_" gradientUnits="userSpaceOnUse" x1="0" y1="121.5601" x2="1" y2="121.5601" gradientTransform="matrix(0 42.2812 42.2812 0 -5123.9551 32.2788)">
		<stop  offset="0" style="stop-color:#E30613"/>
		<stop  offset="0.2857" style="stop-color:#E30613"/>
		<stop  offset="0.533" style="stop-color:#DA0812"/>
		<stop  offset="1" style="stop-color:#C70C0F"/>
	</linearGradient>
	<rect y="32.294" clip-path="url(#SVGID_4_)" fill="url(#SVGID_5_)" width="31.524" height="42.281"/>
</g>
</svg>
